<svg id="BACKGROUND" xmlns="http://www.w3.org/2000/svg" xmlns:xlink="http://www.w3.org/1999/xlink" viewBox="0 0 750 500"><defs><style>.cls-1,.cls-10,.cls-11,.cls-12,.cls-13,.cls-14,.cls-15,.cls-16,.cls-17,.cls-18,.cls-19,.cls-20,.cls-21,.cls-22,.cls-23,.cls-24,.cls-25,.cls-26,.cls-27,.cls-28,.cls-29,.cls-3,.cls-30,.cls-31,.cls-32,.cls-33,.cls-34,.cls-35,.cls-36,.cls-37,.cls-38,.cls-39,.cls-4,.cls-40,.cls-41,.cls-42,.cls-43,.cls-44,.cls-45,.cls-46,.cls-47,.cls-48,.cls-49,.cls-5,.cls-50,.cls-51,.cls-52,.cls-53,.cls-54,.cls-55,.cls-56,.cls-57,.cls-58,.cls-59,.cls-6,.cls-60,.cls-61,.cls-62,.cls-63,.cls-64,.cls-65,.cls-66,.cls-67,.cls-68,.cls-69,.cls-7,.cls-70,.cls-71,.cls-72,.cls-73,.cls-74,.cls-75,.cls-76,.cls-77,.cls-78,.cls-79,.cls-8,.cls-80,.cls-81,.cls-82,.cls-83,.cls-84,.cls-85,.cls-86,.cls-87,.cls-88,.cls-89,.cls-9,.cls-90,.cls-91,.cls-92,.cls-93{fill:none;}.cls-2{clip-path:url(#clip-path);}.cls-10,.cls-11,.cls-12,.cls-13,.cls-14,.cls-15,.cls-16,.cls-17,.cls-18,.cls-19,.cls-20,.cls-21,.cls-22,.cls-23,.cls-24,.cls-25,.cls-26,.cls-27,.cls-28,.cls-29,.cls-3,.cls-30,.cls-31,.cls-32,.cls-33,.cls-34,.cls-35,.cls-36,.cls-37,.cls-38,.cls-39,.cls-4,.cls-40,.cls-41,.cls-42,.cls-43,.cls-44,.cls-45,.cls-46,.cls-47,.cls-48,.cls-49,.cls-5,.cls-50,.cls-51,.cls-52,.cls-53,.cls-54,.cls-55,.cls-56,.cls-57,.cls-58,.cls-59,.cls-6,.cls-60,.cls-61,.cls-62,.cls-63,.cls-64,.cls-65,.cls-66,.cls-67,.cls-68,.cls-69,.cls-7,.cls-70,.cls-71,.cls-72,.cls-73,.cls-74,.cls-75,.cls-76,.cls-77,.cls-78,.cls-79,.cls-8,.cls-80,.cls-81,.cls-82,.cls-83,.cls-84,.cls-85,.cls-86,.cls-87,.cls-88,.cls-89,.cls-9,.cls-90,.cls-91,.cls-92,.cls-93{stroke-miterlimit:10;}.cls-3{stroke:url(#Degradado_sin_nombre_22928);}.cls-4{stroke:url(#Degradado_sin_nombre_22928-2);}.cls-39,.cls-46,.cls-5,.cls-90,.cls-91,.cls-92,.cls-93{stroke-width:2px;}.cls-5{stroke:url(#Degradado_sin_nombre_950);}.cls-6{stroke:url(#Degradado_sin_nombre_22928-3);}.cls-7{stroke:url(#Degradado_sin_nombre_22928-4);}.cls-8{stroke:url(#Degradado_sin_nombre_22928-5);}.cls-9{stroke:url(#Degradado_sin_nombre_22928-6);}.cls-10{stroke:url(#Degradado_sin_nombre_22928-7);}.cls-11{stroke:url(#Degradado_sin_nombre_950-2);}.cls-12{stroke:url(#Degradado_sin_nombre_22928-8);}.cls-13{stroke:url(#Degradado_sin_nombre_22928-9);}.cls-14{stroke:url(#Degradado_sin_nombre_22928-10);}.cls-15{stroke:url(#Degradado_sin_nombre_950-3);}.cls-16{stroke:url(#Degradado_sin_nombre_22928-11);}.cls-17{stroke:url(#Degradado_sin_nombre_22928-12);}.cls-18{stroke:url(#Degradado_sin_nombre_22928-13);}.cls-19{stroke:url(#Degradado_sin_nombre_22928-14);}.cls-20{stroke:url(#Degradado_sin_nombre_22928-15);}.cls-21{stroke:url(#Degradado_sin_nombre_22928-16);}.cls-22{stroke:url(#Degradado_sin_nombre_22928-17);}.cls-23{stroke:url(#Degradado_sin_nombre_22928-18);}.cls-24{stroke:url(#Degradado_sin_nombre_22928-19);}.cls-25{stroke:url(#Degradado_sin_nombre_22928-20);}.cls-26{stroke:url(#Degradado_sin_nombre_22928-21);}.cls-27{stroke:url(#Degradado_sin_nombre_22928-22);}.cls-28{stroke:url(#Degradado_sin_nombre_22928-23);}.cls-29{stroke:url(#Degradado_sin_nombre_22928-24);}.cls-30{stroke:url(#Degradado_sin_nombre_22928-25);}.cls-31{stroke:url(#Degradado_sin_nombre_22928-26);}.cls-32{stroke:url(#Degradado_sin_nombre_22928-27);}.cls-33{stroke:url(#Degradado_sin_nombre_950-4);}.cls-34{stroke:url(#Degradado_sin_nombre_22928-28);}.cls-35{stroke:url(#Degradado_sin_nombre_22928-29);}.cls-36{stroke:url(#Degradado_sin_nombre_22928-30);}.cls-37{stroke:url(#Degradado_sin_nombre_950-5);}.cls-38{stroke:url(#Degradado_sin_nombre_22928-31);}.cls-39{stroke:url(#Degradado_sin_nombre_950-6);}.cls-40{stroke:url(#Degradado_sin_nombre_22928-32);}.cls-41{stroke:url(#Degradado_sin_nombre_22928-33);}.cls-42{stroke:url(#Degradado_sin_nombre_22928-34);}.cls-43{stroke:url(#Degradado_sin_nombre_22928-35);}.cls-44{stroke:url(#Degradado_sin_nombre_22928-36);}.cls-45{stroke:url(#Degradado_sin_nombre_22928-37);}.cls-46{stroke:url(#Degradado_sin_nombre_950-7);}.cls-47{stroke:url(#Degradado_sin_nombre_22928-38);}.cls-48{stroke:url(#Degradado_sin_nombre_22928-39);}.cls-49{stroke:url(#Degradado_sin_nombre_22928-40);}.cls-50{stroke:url(#Degradado_sin_nombre_22928-41);}.cls-51{stroke:url(#Degradado_sin_nombre_22928-42);}.cls-52{stroke:url(#Degradado_sin_nombre_22928-43);}.cls-53{stroke:url(#Degradado_sin_nombre_950-8);}.cls-54{stroke:url(#Degradado_sin_nombre_22928-44);}.cls-55{stroke:url(#Degradado_sin_nombre_22928-45);}.cls-56{stroke:url(#Degradado_sin_nombre_22928-46);}.cls-57{stroke:url(#Degradado_sin_nombre_22928-47);}.cls-58{stroke:url(#Degradado_sin_nombre_22928-48);}.cls-59{stroke:url(#Degradado_sin_nombre_22928-49);}.cls-60{stroke:url(#Degradado_sin_nombre_950-9);}.cls-61{stroke:url(#Degradado_sin_nombre_22928-50);}.cls-62{stroke:url(#Degradado_sin_nombre_22928-51);}.cls-63{stroke:url(#Degradado_sin_nombre_22928-52);}.cls-64{stroke:url(#Degradado_sin_nombre_22928-53);}.cls-65{stroke:url(#Degradado_sin_nombre_22928-54);}.cls-66{stroke:url(#Degradado_sin_nombre_950-10);}.cls-67{stroke:url(#Degradado_sin_nombre_22928-55);}.cls-68{stroke:url(#Degradado_sin_nombre_22928-56);}.cls-69{stroke:url(#Degradado_sin_nombre_22928-57);}.cls-70{stroke:url(#Degradado_sin_nombre_22928-58);}.cls-71{stroke:url(#Degradado_sin_nombre_22928-59);}.cls-72{stroke:url(#Degradado_sin_nombre_22928-60);}.cls-73{stroke:url(#Degradado_sin_nombre_22928-61);}.cls-74{stroke:url(#Degradado_sin_nombre_950-11);}.cls-75{stroke:url(#Degradado_sin_nombre_22928-62);}.cls-76{stroke:url(#Degradado_sin_nombre_22928-63);}.cls-77{stroke:url(#Degradado_sin_nombre_22928-64);}.cls-78{stroke:url(#Degradado_sin_nombre_22928-65);}.cls-79{stroke:url(#Degradado_sin_nombre_22928-66);}.cls-80{stroke:url(#Degradado_sin_nombre_22928-67);}.cls-81{stroke:url(#Degradado_sin_nombre_22928-68);}.cls-82{stroke:url(#Degradado_sin_nombre_22928-69);}.cls-83{stroke:url(#Degradado_sin_nombre_950-12);}.cls-84{stroke:url(#Degradado_sin_nombre_22928-70);}.cls-85{stroke:url(#Degradado_sin_nombre_22928-71);}.cls-86{stroke:url(#Degradado_sin_nombre_22928-72);}.cls-87{stroke:url(#Degradado_sin_nombre_22928-73);}.cls-88{stroke:url(#Degradado_sin_nombre_950-13);}.cls-89{stroke:url(#Degradado_sin_nombre_22928-74);}.cls-90{stroke:url(#Degradado_sin_nombre_950-14);}.cls-91{stroke:url(#Degradado_sin_nombre_950-15);}.cls-92{stroke:url(#Degradado_sin_nombre_950-16);}.cls-93{stroke:url(#Degradado_sin_nombre_950-17);}</style><clipPath id="clip-path"><rect class="cls-1" width="750" height="500"/></clipPath><linearGradient id="Degradado_sin_nombre_22928" x1="222.88" y1="394.82" x2="477.31" y2="140.39" gradientUnits="userSpaceOnUse"><stop offset="0" stop-color="#86e7ff" stop-opacity="0.3"/><stop offset="1" stop-color="#86e7ff" stop-opacity="0.8"/></linearGradient><linearGradient id="Degradado_sin_nombre_22928-2" x1="226.43" y1="391.26" x2="473.78" y2="143.91" xlink:href="#Degradado_sin_nombre_22928"/><linearGradient id="Degradado_sin_nombre_950" x1="190.53" y1="260.42" x2="400.85" y2="260.42" gradientUnits="userSpaceOnUse"><stop offset="0" stop-color="#26f7dd"/><stop offset="1" stop-color="#00b8dd"/></linearGradient><linearGradient id="Degradado_sin_nombre_22928-3" x1="296.62" y1="230.99" x2="375.18" y2="152.43" xlink:href="#Degradado_sin_nombre_22928"/><linearGradient id="Degradado_sin_nombre_22928-4" x1="303.68" y1="223.9" x2="368.11" y2="159.48" xlink:href="#Degradado_sin_nombre_22928"/><linearGradient id="Degradado_sin_nombre_22928-5" x1="307.53" y1="220.02" x2="364.57" y2="162.98" xlink:href="#Degradado_sin_nombre_22928"/><linearGradient id="Degradado_sin_nombre_22928-6" x1="214.69" y1="311.66" x2="268.09" y2="258.27" xlink:href="#Degradado_sin_nombre_22928"/><linearGradient id="Degradado_sin_nombre_22928-7" x1="218.23" y1="308.13" x2="264.61" y2="261.75" xlink:href="#Degradado_sin_nombre_22928"/><linearGradient id="Degradado_sin_nombre_950-2" x1="226.58" y1="286.77" x2="269.94" y2="286.77" xlink:href="#Degradado_sin_nombre_950"/><linearGradient id="Degradado_sin_nombre_22928-8" x1="241.43" y1="291.74" x2="254.54" y2="278.63" xlink:href="#Degradado_sin_nombre_22928"/><linearGradient id="Degradado_sin_nombre_22928-9" x1="363.85" y1="410.14" x2="466.12" y2="307.87" xlink:href="#Degradado_sin_nombre_22928"/><linearGradient id="Degradado_sin_nombre_22928-10" x1="367.38" y1="406.58" x2="462.54" y2="311.42" xlink:href="#Degradado_sin_nombre_22928"/><linearGradient id="Degradado_sin_nombre_950-3" x1="330.21" y1="355.02" x2="509.79" y2="355.02" xlink:href="#Degradado_sin_nombre_950"/><linearGradient id="Degradado_sin_nombre_22928-11" x1="360.3" y1="348.02" x2="406.67" y2="301.65" xlink:href="#Degradado_sin_nombre_22928"/><linearGradient id="Degradado_sin_nombre_22928-12" x1="363.4" y1="344.73" x2="403.04" y2="305.09" xlink:href="#Degradado_sin_nombre_22928"/><linearGradient id="Degradado_sin_nombre_22928-13" x1="368.35" y1="335.2" x2="393.89" y2="309.66" xlink:href="#Degradado_sin_nombre_22928"/><linearGradient id="Degradado_sin_nombre_22928-14" x1="378.32" y1="322.13" x2="386.04" y2="314.41" xlink:href="#Degradado_sin_nombre_22928"/><linearGradient id="Degradado_sin_nombre_22928-15" x1="429.36" y1="411.85" x2="470.02" y2="371.19" xlink:href="#Degradado_sin_nombre_22928"/><linearGradient id="Degradado_sin_nombre_22928-16" x1="441.26" y1="400.95" x2="463.45" y2="378.77" xlink:href="#Degradado_sin_nombre_22928"/><linearGradient id="Degradado_sin_nombre_22928-17" x1="445.95" y1="397.77" x2="460.74" y2="382.97" xlink:href="#Degradado_sin_nombre_22928"/><linearGradient id="Degradado_sin_nombre_22928-18" x1="494.29" y1="467.48" x2="684.63" y2="277.14" xlink:href="#Degradado_sin_nombre_22928"/><linearGradient id="Degradado_sin_nombre_22928-19" x1="501.34" y1="460.42" x2="677.55" y2="284.21" xlink:href="#Degradado_sin_nombre_22928"/><linearGradient id="Degradado_sin_nombre_22928-20" x1="526.47" y1="473.51" x2="684.77" y2="315.21" xlink:href="#Degradado_sin_nombre_22928"/><linearGradient id="Degradado_sin_nombre_22928-21" x1="563.25" y1="470.8" x2="695.47" y2="338.58" xlink:href="#Degradado_sin_nombre_22928"/><linearGradient id="Degradado_sin_nombre_22928-22" x1="595.51" y1="473.17" x2="632.46" y2="436.22" xlink:href="#Degradado_sin_nombre_22928"/><linearGradient id="Degradado_sin_nombre_22928-23" x1="600.89" y1="468.87" x2="626.69" y2="443.07" xlink:href="#Degradado_sin_nombre_22928"/><linearGradient id="Degradado_sin_nombre_22928-24" x1="608" y1="457.63" x2="617.19" y2="448.43" xlink:href="#Degradado_sin_nombre_22928"/><linearGradient id="Degradado_sin_nombre_22928-25" x1="588.32" y1="376.33" x2="609.27" y2="355.38" xlink:href="#Degradado_sin_nombre_22928"/><linearGradient id="Degradado_sin_nombre_22928-26" x1="696.94" y1="516.86" x2="754.99" y2="458.81" xlink:href="#Degradado_sin_nombre_22928"/><linearGradient id="Degradado_sin_nombre_22928-27" x1="707.58" y1="515.58" x2="754.69" y2="468.47" xlink:href="#Degradado_sin_nombre_22928"/><linearGradient id="Degradado_sin_nombre_950-4" x1="724.49" y1="493.82" x2="765.07" y2="493.82" xlink:href="#Degradado_sin_nombre_950"/><linearGradient id="Degradado_sin_nombre_22928-28" x1="-101.84" y1="524.39" x2="142.75" y2="279.8" xlink:href="#Degradado_sin_nombre_22928"/><linearGradient id="Degradado_sin_nombre_22928-29" x1="-94.77" y1="517.32" x2="135.67" y2="286.87" xlink:href="#Degradado_sin_nombre_22928"/><linearGradient id="Degradado_sin_nombre_22928-30" x1="-82.55" y1="505.23" x2="123.66" y2="299.02" xlink:href="#Degradado_sin_nombre_22928"/><linearGradient id="Degradado_sin_nombre_950-5" x1="-79.03" y1="501.67" x2="120.1" y2="302.54" xlink:href="#Degradado_sin_nombre_950"/><linearGradient id="Degradado_sin_nombre_22928-31" x1="-74.9" y1="478.7" x2="99.85" y2="303.95" xlink:href="#Degradado_sin_nombre_22928"/><linearGradient id="Degradado_sin_nombre_950-6" x1="-68.6" y1="455.89" x2="79.68" y2="307.61" xlink:href="#Degradado_sin_nombre_950"/><linearGradient id="Degradado_sin_nombre_22928-32" x1="-36.15" y1="460.44" x2="86.93" y2="337.36" xlink:href="#Degradado_sin_nombre_22928"/><linearGradient id="Degradado_sin_nombre_22928-33" x1="-30.97" y1="458.54" x2="85.04" y2="342.53" xlink:href="#Degradado_sin_nombre_22928"/><linearGradient id="Degradado_sin_nombre_22928-34" x1="-4.47" y1="441.17" x2="79.55" y2="357.16" xlink:href="#Degradado_sin_nombre_22928"/><linearGradient id="Degradado_sin_nombre_22928-35" x1="33.72" y1="401.94" x2="70.26" y2="365.4" xlink:href="#Degradado_sin_nombre_22928"/><linearGradient id="Degradado_sin_nombre_22928-36" x1="120.12" y1="91.93" x2="264.73" y2="-52.68" xlink:href="#Degradado_sin_nombre_22928"/><linearGradient id="Degradado_sin_nombre_22928-37" x1="127.19" y1="84.86" x2="257.62" y2="-45.57" xlink:href="#Degradado_sin_nombre_22928"/><linearGradient id="Degradado_sin_nombre_950-7" x1="95.89" y1="31.8" x2="278.97" y2="31.8" xlink:href="#Degradado_sin_nombre_950"/><linearGradient id="Degradado_sin_nombre_22928-38" x1="145.5" y1="73.12" x2="238.43" y2="-19.81" xlink:href="#Degradado_sin_nombre_22928"/><linearGradient id="Degradado_sin_nombre_22928-39" x1="149.05" y1="69.58" x2="234.91" y2="-16.29" xlink:href="#Degradado_sin_nombre_22928"/><linearGradient id="Degradado_sin_nombre_22928-40" x1="180.89" y1="64.39" x2="246.58" y2="-1.31" xlink:href="#Degradado_sin_nombre_22928"/><linearGradient id="Degradado_sin_nombre_22928-41" x1="200.52" y1="53.97" x2="245.02" y2="9.47" xlink:href="#Degradado_sin_nombre_22928"/><linearGradient id="Degradado_sin_nombre_22928-42" x1="353.64" y1="159.69" x2="670.04" y2="-156.72" xlink:href="#Degradado_sin_nombre_22928"/><linearGradient id="Degradado_sin_nombre_22928-43" x1="363.71" y1="152.62" x2="665.96" y2="-149.64" xlink:href="#Degradado_sin_nombre_22928"/><linearGradient id="Degradado_sin_nombre_950-8" x1="446.32" y1="151.61" x2="506.62" y2="151.61" xlink:href="#Degradado_sin_nombre_950"/><linearGradient id="Degradado_sin_nombre_22928-44" x1="460.34" y1="23.21" x2="636.11" y2="-152.56" xlink:href="#Degradado_sin_nombre_22928"/><linearGradient id="Degradado_sin_nombre_22928-45" x1="472.29" y1="208.39" x2="491.16" y2="189.53" xlink:href="#Degradado_sin_nombre_22928"/><linearGradient id="Degradado_sin_nombre_22928-46" x1="488" y1="-8.92" x2="629.46" y2="-150.39" xlink:href="#Degradado_sin_nombre_22928"/><linearGradient id="Degradado_sin_nombre_22928-47" x1="495.41" y1="223.74" x2="647.63" y2="71.52" xlink:href="#Degradado_sin_nombre_22928"/><linearGradient id="Degradado_sin_nombre_22928-48" x1="497.93" y1="222.24" x2="643.11" y2="77.05" xlink:href="#Degradado_sin_nombre_22928"/><linearGradient id="Degradado_sin_nombre_22928-49" x1="506" y1="213.16" x2="637.04" y2="82.12" xlink:href="#Degradado_sin_nombre_22928"/><linearGradient id="Degradado_sin_nombre_950-9" x1="550.96" y1="121.91" x2="661.65" y2="121.91" xlink:href="#Degradado_sin_nombre_950"/><linearGradient id="Degradado_sin_nombre_22928-50" x1="579.67" y1="142.1" x2="625.61" y2="96.16" xlink:href="#Degradado_sin_nombre_22928"/><linearGradient id="Degradado_sin_nombre_22928-51" x1="585.74" y1="123.41" x2="613.01" y2="96.14" xlink:href="#Degradado_sin_nombre_22928"/><linearGradient id="Degradado_sin_nombre_22928-52" x1="4.57" y1="185.68" x2="158.98" y2="31.27" xlink:href="#Degradado_sin_nombre_22928"/><linearGradient id="Degradado_sin_nombre_22928-53" x1="12.48" y1="172.38" x2="146.03" y2="38.83" xlink:href="#Degradado_sin_nombre_22928"/><linearGradient id="Degradado_sin_nombre_22928-54" x1="21.69" y1="160.37" x2="133.69" y2="48.37" xlink:href="#Degradado_sin_nombre_22928"/><linearGradient id="Degradado_sin_nombre_950-10" x1="-18.04" y1="94.96" x2="136.12" y2="94.96" xlink:href="#Degradado_sin_nombre_950"/><linearGradient id="Degradado_sin_nombre_22928-55" x1="7.09" y1="124.13" x2="96.34" y2="34.87" xlink:href="#Degradado_sin_nombre_22928"/><linearGradient id="Degradado_sin_nombre_22928-56" x1="15.37" y1="115.84" x2="87.86" y2="43.35" xlink:href="#Degradado_sin_nombre_22928"/><linearGradient id="Degradado_sin_nombre_22928-57" x1="108.18" y1="174.78" x2="127.63" y2="155.33" xlink:href="#Degradado_sin_nombre_22928"/><linearGradient id="Degradado_sin_nombre_22928-58" x1="300.67" y1="37.64" x2="353.97" y2="-15.66" xlink:href="#Degradado_sin_nombre_22928"/><linearGradient id="Degradado_sin_nombre_22928-59" x1="305.37" y1="35.23" x2="351.59" y2="-10.98" xlink:href="#Degradado_sin_nombre_22928"/><linearGradient id="Degradado_sin_nombre_22928-60" x1="312.18" y1="30.55" x2="347.99" y2="-5.26" xlink:href="#Degradado_sin_nombre_22928"/><linearGradient id="Degradado_sin_nombre_22928-61" x1="679.76" y1="160.93" x2="823.97" y2="16.72" xlink:href="#Degradado_sin_nombre_22928"/><linearGradient id="Degradado_sin_nombre_950-11" x1="679.85" y1="93.13" x2="826.95" y2="93.13" xlink:href="#Degradado_sin_nombre_950"/><linearGradient id="Degradado_sin_nombre_22928-62" x1="688.65" y1="146.12" x2="804.07" y2="30.7" xlink:href="#Degradado_sin_nombre_22928"/><linearGradient id="Degradado_sin_nombre_22928-63" x1="706.67" y1="118.57" x2="789.67" y2="35.57" xlink:href="#Degradado_sin_nombre_22928"/><linearGradient id="Degradado_sin_nombre_22928-64" x1="718.58" y1="117.87" x2="789.06" y2="47.38" xlink:href="#Degradado_sin_nombre_22928"/><linearGradient id="Degradado_sin_nombre_22928-65" x1="732.77" y1="104.58" x2="780.41" y2="56.94" xlink:href="#Degradado_sin_nombre_22928"/><linearGradient id="Degradado_sin_nombre_22928-66" x1="737.66" y1="96.53" x2="765.04" y2="69.15" xlink:href="#Degradado_sin_nombre_22928"/><linearGradient id="Degradado_sin_nombre_22928-67" x1="642.64" y1="356.04" x2="769.02" y2="229.66" xlink:href="#Degradado_sin_nombre_22928"/><linearGradient id="Degradado_sin_nombre_22928-68" x1="650.93" y1="349.48" x2="762.81" y2="237.6" xlink:href="#Degradado_sin_nombre_22928"/><linearGradient id="Degradado_sin_nombre_22928-69" x1="656.59" y1="347.9" x2="761.31" y2="243.19" xlink:href="#Degradado_sin_nombre_22928"/><linearGradient id="Degradado_sin_nombre_950-12" x1="689.78" y1="324.5" x2="758.54" y2="324.5" xlink:href="#Degradado_sin_nombre_950"/><linearGradient id="Degradado_sin_nombre_22928-70" x1="708.17" y1="368.16" x2="751.82" y2="324.51" xlink:href="#Degradado_sin_nombre_22928"/><linearGradient id="Degradado_sin_nombre_22928-71" x1="715.12" y1="362.43" x2="731.75" y2="345.81" xlink:href="#Degradado_sin_nombre_22928"/><linearGradient id="Degradado_sin_nombre_22928-72" x1="354.66" y1="578.7" x2="475.31" y2="458.06" xlink:href="#Degradado_sin_nombre_22928"/><linearGradient id="Degradado_sin_nombre_22928-73" x1="358.2" y1="575.17" x2="471.78" y2="461.6" xlink:href="#Degradado_sin_nombre_22928"/><linearGradient id="Degradado_sin_nombre_950-13" x1="348.18" y1="507.03" x2="484.43" y2="507.03" xlink:href="#Degradado_sin_nombre_950"/><linearGradient id="Degradado_sin_nombre_22928-74" x1="409.73" y1="529.27" x2="450.77" y2="488.24" xlink:href="#Degradado_sin_nombre_22928"/><linearGradient id="Degradado_sin_nombre_950-14" x1="-104.82" y1="350.54" x2="263.59" y2="350.54" xlink:href="#Degradado_sin_nombre_950"/><linearGradient id="Degradado_sin_nombre_950-15" x1="44.41" y1="66.6" x2="401.83" y2="66.6" xlink:href="#Degradado_sin_nombre_950"/><linearGradient id="Degradado_sin_nombre_950-16" x1="431.58" y1="222.92" x2="800.89" y2="222.92" xlink:href="#Degradado_sin_nombre_950"/><linearGradient id="Degradado_sin_nombre_950-17" x1="250.89" y1="492.71" x2="524.56" y2="492.71" xlink:href="#Degradado_sin_nombre_950"/></defs><title>Mesa de trabajo 6</title><g class="cls-2"><path class="cls-3" d="M328.36,480.5a45.21,45.21,0,0,1-16.25-3c-15.81-6.21-28.24-20.92-33.23-39.37-1.91-7.07-2.79-14.54-3.64-21.76C273.58,402.2,272,388.83,263.07,380c-4.55-4.51-10.63-7.35-17.07-10.36-6.24-2.92-12.69-5.93-18.18-10.72-12.48-10.88-15.76-25.79-18.93-40.2-1.65-7.52-3.21-14.62-6-21.07-2.63-6.08-6.8-10.91-11.21-16-7.4-8.59-15.79-18.33-15.11-34.38.77-18.24,13.3-35.3,30.46-41.5,8.42-3,17.27-3.49,25.82-3.93,9.49-.48,18.45-.94,26.14-4.81,10.35-5.21,17.16-16.14,23.74-26.71q1.33-2.16,2.68-4.29c7.48-11.78,17.22-18.27,26.63-24.56,7.15-4.77,13.91-9.27,19.76-16,8.95-10.28,18.94-26.9,15.73-47.75-.16-1-.34-2-.52-3.06-1-5.88-2.18-12.55.37-19,5-12.6,12.72-15.25,18.33-15.25,16.47,0,32.8,22.86,37.42,29.86,5.53,8.4,9.4,16.55,10.34,21.81,3.87,21.57-1.06,43.36-6.39,61.83-1.75,6.06-3.23,13-4.79,20.26C397,198.77,391,226.71,371,241c-7.35,5.22-15.78,7.81-23.93,10.31-6.84,2.1-13.29,4.08-18.93,7.47-14.41,8.66-22,27.43-17.58,43.66.35,1.3.77,2.61,1.22,4,1.32,4.08,2.81,8.71,2.48,13.71-.52,7.92-5.3,14-9.51,19.41a50.27,50.27,0,0,0-6.27,9.29c-5,10.63.31,23.6,8.08,30.91s18.75,11.83,34,14.15c2.62.4,5.34.74,8,1.07,7.22.9,14.67,1.82,21.91,4.2,12.26,4,21.32,11.88,24.86,21.57a25.67,25.67,0,0,1-1.34,20.08,20.28,20.28,0,0,1-12.41,10.62,34.4,34.4,0,0,1-5.6,1,17.67,17.67,0,0,0-4.91,1c-2.56,1.12-4.47,4.12-6.5,7.29-.82,1.27-1.65,2.57-2.58,3.84-7.28,10-19.82,16-33.53,16Z"/><path class="cls-4" d="M399,73C385.67,52.81,362.4,31.27,352,57.45c-2.42,6.1-.57,12.94.44,19.43,3,19.46-4.24,37.27-16.89,51.81-14.33,16.45-33.62,20.52-45.95,39.95-7.85,12.38-15.3,26.2-28.39,32.79-16,8-35.7,2.9-52.51,9a42.21,42.21,0,0,0-27.16,37c-1,22.68,18.19,30.35,25.91,48.22,8.45,19.56,6.27,44.35,23.63,59.48,10.44,9.11,25.65,11.54,35.48,21.31,15.12,15,11.55,39.83,17.12,60.39,4.25,15.69,15.09,30.08,30.23,36s34.34,1.89,43.91-11.25c3.37-4.63,5.87-10.46,11.1-12.77,3.48-1.53,7.5-1.15,11.16-2.19,9.47-2.71,13.8-14.93,10.42-24.19S378.17,407,368.81,403.89s-19.34-3.58-29.07-5.07c-13.31-2-26.85-6.23-36.65-15.46s-14.87-24.46-9.18-36.67c4.42-9.47,14.63-16.48,15.32-26.91.37-5.51-2.1-10.75-3.54-16.07-5-18.34,3.55-39.47,19.84-49.26,13.2-7.93,30-8.65,42.54-17.57,24.17-17.17,26.6-58.08,34.21-84.41,5.58-19.36,9.83-39.74,6.27-59.57C407.74,88.36,404.09,80.77,399,73Z"/><path class="cls-5" d="M328.36,465.49a29.68,29.68,0,0,1-10.77-2c-11.24-4.41-20.53-15.64-24.23-29.32-1.63-6-2.4-12.6-3.22-19.59-1.8-15.34-3.85-32.72-16.5-45.28-6.4-6.35-14.31-10.05-21.28-13.31-5.55-2.59-10.78-5-14.68-8.44-8.76-7.63-11.25-19-14.14-32.11-1.73-7.88-3.52-16-6.88-23.8-3.54-8.18-8.89-14.39-13.61-19.87-7.61-8.84-11.9-14.31-11.49-24,.51-12.12,9.16-23.9,20.57-28,6.32-2.29,13.68-2.66,21.48-3.06,10.63-.54,21.61-1.1,32.12-6.39,14.12-7.1,22.41-20.42,29.73-32.18.87-1.4,1.74-2.8,2.62-4.18,5.77-9.1,13.43-14.21,22.29-20.12,7.66-5.11,15.57-10.39,22.75-18.63,15.82-18.17,22.47-38.88,19.23-59.89-.17-1.11-.36-2.22-.56-3.34-.75-4.31-1.46-8.39-.47-10.89.54-1.36,2.44-5.78,4.39-5.78,4.75,0,15.36,8.65,24.89,23.11,5.24,8,7.72,14.05,8.11,16.21,3.32,18.53-1.19,38.21-6,55-1.89,6.56-3.43,13.71-5.05,21.27-4.71,22-10.05,46.91-25.34,57.77-5.38,3.82-12.32,6-19.66,8.2s-15,4.62-22.24,8.95a54.88,54.88,0,0,0-24.72,34.55c-1.64,7.12-2.15,15.11-.46,22.27,2,8.48,2.92,18.14-.58,26.71-4.15,10.13-12.67,15.29-13.07,27.19-.43,12.8,5.45,25.35,14.68,34,9.94,9.35,23.67,15.26,42,18.06,2.83.43,5.66.79,8.39,1.13,6.8.84,13.23,1.64,19.08,3.56,7.75,2.54,13.53,7.2,15.45,12.46a10.7,10.7,0,0,1-.62,8.13,5.71,5.71,0,0,1-3.16,3,23.7,23.7,0,0,1-3.19.5,30.56,30.56,0,0,0-9.25,2.16c-6.7,3-10.24,8.49-13.09,12.93-.72,1.13-1.4,2.2-2.06,3.1C345.29,461.83,337.29,465.49,328.36,465.49Z"/><path class="cls-6" d="M323.82,233.73c-5.19,0-9.93-1.26-14.74-2.67l-11.48-3.37c-2.07-.61-6.93-2-9.84-6.81-3.24-5.32-2.44-12,2.15-18,4.77-6.16,10.64-10.39,16.31-14.48,4.67-3.36,9.08-6.54,12.08-10.35A60.38,60.38,0,0,0,324.14,168a86.27,86.27,0,0,1,6.52-11.52,30.23,30.23,0,0,1,33.66-10.64c6.89,2.33,11.92,7.16,13.81,13.27,1.41,4.54,1.74,11.75-4.69,20.29-2.28,3-4.57,5.76-6.8,8.41-4.71,5.6-8.78,10.44-11.61,16.72-.46,1-.9,2-1.35,3.06-4,9.22-9,20.69-21.3,24.8a26.93,26.93,0,0,1-8.56,1.34Z"/><path class="cls-7" d="M361.12,155.32c-7-2.37-17-.62-22.27,6.9-4.88,6.95-7.44,15.38-12.7,22.05-7.79,9.89-20.62,14.81-28.33,24.76-1.48,1.92-2.78,4.58-1.52,6.65.85,1.39,2.56,1.95,4.12,2.41l11.47,3.37c5.65,1.66,11.73,3.32,17.32,1.45,9.15-3.06,12.73-13.71,16.7-22.5,4.91-10.85,12.61-17.81,19.54-27S368.21,157.71,361.12,155.32Z"/><path class="cls-8" d="M323.82,218.71c-6.34.46-13.46-2.63-19.49-3.94-1.12-.25-2.42-.64-2.81-1.72-.48-1.33.77-2.61,1.89-3.48,8.9-6.95,19.61-13.26,26.67-22.2a71.3,71.3,0,0,0,7.48-12.68,73.59,73.59,0,0,1,5.38-9.59c3.56-5.08,19.32-10.23,20.57-.49.49,3.84-2.58,7.09-5.26,9.87a98.61,98.61,0,0,0-18.56,27.44c-2,4.41-3.75,9.08-7.05,12.63A12.82,12.82,0,0,1,323.82,218.71Z"/><path class="cls-9" d="M282.78,276.15c-7.35-15.81-69.15-65-71.45-25.09-.6,10.46,8,19.11,10.55,29.26,1.69,6.63.75,13.63,1.6,20.41,1.4,11.09,9.14,26,16,34.79,3.15,4.05,8.23,7,13.3,6.21,12.87-2,9.87-16.16,13.91-24.65,4.56-9.59,16.35-15,18.76-25.83C286.57,286.17,285,280.87,282.78,276.15Z"/><path class="cls-10" d="M251.07,336.86c-2.57,0-5.58-1.73-7.67-4.41-6.29-8.09-13.68-22.17-15-32.34a74.52,74.52,0,0,1-.41-7.79,56.59,56.59,0,0,0-1.3-13.23,59.71,59.71,0,0,0-5.43-12.78c-2.7-5.18-5.26-10.07-5-15,.6-10.55,5.7-10.55,8.15-10.55,16.56,0,48.85,26.88,53.77,37.46,2.25,4.86,3,8.75,2.3,11.9-1,4.68-4.77,8.45-8.72,12.44-3.6,3.63-7.32,7.38-9.68,12.33a40.56,40.56,0,0,0-2.8,10.2C257.92,333,256.91,336,252,336.79A5.49,5.49,0,0,1,251.07,336.86Z"/><path class="cls-11" d="M249.59,323.84c-4.4.75-8.8-7.49-9.7-10.65-1.55-5.49-.91-11.33-.92-17A73.83,73.83,0,0,0,229.36,260a15.55,15.55,0,0,1-2.2-5,4.67,4.67,0,0,1,1.85-4.82c2.35-1.37,5.22.43,7.33,2.16l23.6,19.34c4.22,3.46,8.75,7.46,9.42,12.88.61,5-2.35,9.79-5.82,13.45s-7.63,6.76-10.39,11a15.15,15.15,0,0,0-2.59,8c0,2.47,2.46,6.09-.78,6.84Z"/><path class="cls-12" d="M248.94,298.32a.74.74,0,0,1-.58-.42,1.46,1.46,0,0,1,.22-1.06c1-2.11-.05-5.21-.53-7.38-.53-2.41-1.19-4.8-1.81-7.2a46.73,46.73,0,0,1-1.33-6.08c-.12-.93-.39-2.62.52-3.27a.56.56,0,0,1,.17-.09c2.09-.92,4.55,2.11,5.68,3.45.73.86,1.31,1.86,2,2.71a32.54,32.54,0,0,0,3.62,3.42c.95.82,2.34,2,2.5,3.33.08.63-.48,2.55-3.15,5.36-.95,1-2,2-3.18,3.1s-1.69,2.61-2.94,3.65a2.06,2.06,0,0,1-.92.49A1,1,0,0,1,248.94,298.32Z"/><path class="cls-13" d="M451.8,452.49c-10.63,0-21.86-7-28.61-17.77-4.87-7.78-7.44-16.43-9.92-24.81-.91-3.07-1.86-6.24-2.89-9.26-4.34-12.75-10.42-21-18.07-24.47a28.76,28.76,0,0,0-12.09-2.31,104,104,0,0,0-15.83,1.69c-2.85.44-5.79.9-8.69,1.24a57,57,0,0,1-6.41.37c-16.77,0-28.93-6.91-32.53-18.49-3-9.61,1.14-19.45,4.51-26,.84-1.64,1.72-3.27,2.6-4.91,4-7.48,7.82-14.55,8-22.05a53,53,0,0,0-.42-6.72,43.9,43.9,0,0,1-.18-11.37c2.43-16.19,19.62-25.39,35.57-27.32q2.91-.35,5.73-.71c8.34-1.06,16.22-2,23.44-2,20.64,0,33,8.72,41.19,29.16,2.06,5.14,3.73,10.42,5.34,15.53a150.53,150.53,0,0,0,7.09,19.39c7.57,16,21.78,30.4,41.11,41.77,1.49.87,3,1.73,4.51,2.59,9.42,5.36,19.15,10.9,25.11,20.64a28.67,28.67,0,0,1,1.74,25.24c-2.66,6.14-7.42,10.22-13.41,11.47a23.73,23.73,0,0,1-4.93.45h0c-1,0-2,0-3-.08s-1.74-.08-2.61-.08a17.74,17.74,0,0,0-1.91.09c-6.63.72-11.8,6.42-17.28,12.47-5.83,6.42-11.86,13.07-20.72,15.46A24.91,24.91,0,0,1,451.8,452.49Z"/><path class="cls-14" d="M516.14,389.23c-6.2-10.13-17.65-15.51-27.89-21.53-17.95-10.56-34.18-25.12-43.1-43.94-5.34-11.26-7.9-23.63-12.55-35.19-12.9-32.05-34.67-27-65.12-23.3-13.83,1.67-29.16,9.32-31.22,23.09-.87,5.78.81,11.65.64,17.5-.3,10.48-6.39,19.76-11.18,29.09-3.53,6.89-6.49,14.85-4.19,22.24,3.94,12.68,20.4,16.17,33.6,14.64s27.17-5.71,39.25-.2c10.73,4.89,16.93,16.25,20.74,27.4s6.05,23.05,12.31,33,18.12,17.82,29.5,14.74c15.72-4.24,22.58-26.32,38.77-28.07,4-.43,8.08.52,12-.3C519.33,416,522.34,399.36,516.14,389.23Z"/><path class="cls-15" d="M451.8,437.49c-5.41,0-11.94-4.41-15.9-10.73-3.78-6-5.95-13.36-8.25-21.11-.95-3.22-1.94-6.54-3.07-9.84-5.73-16.82-14.5-28-26.05-33.28a43.32,43.32,0,0,0-18.31-3.66,116.85,116.85,0,0,0-18.15,1.87c-2.82.44-5.49.86-8.09,1.16a40.58,40.58,0,0,1-4.69.27c-7.26,0-16.39-2.08-18.21-7.95-1-3.32.09-8,3.54-14.71.79-1.55,1.62-3.09,2.46-4.64,4.45-8.29,9.5-17.68,9.82-28.73a65.43,65.43,0,0,0-.49-8.71,32.25,32.25,0,0,1-.26-7.59c.9-6,8.93-13,22.53-14.65l5.81-.72c8.2-1,15.28-1.93,21.56-1.93,12.53,0,20.58,3.15,27.27,19.76,1.85,4.6,3.36,9.38,5,14.45A163.18,163.18,0,0,0,436.12,328c8.86,18.69,25.13,35.38,47.06,48.28,1.55.91,3.12,1.8,4.7,2.7,8.11,4.62,15.78,9,19.73,15.43a13.63,13.63,0,0,1,.76,11.46c-1,2.39-2.3,2.65-2.71,2.74a9.88,9.88,0,0,1-1.87.13c-.79,0-1.59,0-2.39-.07-1,0-2.1-.09-3.25-.09a32.2,32.2,0,0,0-3.52.18c-12.3,1.32-20,9.81-26.78,17.3-4.58,5-8.9,9.81-13.53,11.06A9.63,9.63,0,0,1,451.8,437.49Z"/><path class="cls-16" d="M397.91,293.83c-7.36-8.94-18.61-13.77-30-6.37-5.49,3.57-5.77,11.38-8.89,17.15-3.44,6.38-10.64,10.59-12.5,17.6-1.92,7.31,2.82,14.79,8.52,19.75,3.79,3.3,6.27,3.19,10.65,1.84a31,31,0,0,1,12.68-1.42c10.57.85,20.93,4,31.61,3.37,3.87-.22,8.23-1.29,10.09-4.7,2-3.76,0-8.36-1.94-12.16C412,317,406.47,304.24,397.91,293.83Z"/><path class="cls-17" d="M407.23,340.8c-9.6-.33-18.87-2.64-28.43-3.4-1.25-.1-2.4-.15-3.52-.15-7.38,0-15,4.8-20.9-2.33a13.51,13.51,0,0,1-2.53-11.64c1.63-6.81,8.37-10.31,11.6-16.3a43.45,43.45,0,0,0,2.9-7.28c1.18-3.58,2.2-6.68,4.32-8.05a15.9,15.9,0,0,1,8.71-2.82c6.91,0,12.16,5.12,14.67,8.18,6.34,7.7,11.07,17.13,15.64,26.25,1.56,3.1,3,6,4.78,9,1.32,2.2,2,5.3.23,7.14-1.28,1.32-3.31,1.45-5.14,1.45C408.78,340.84,408,340.83,407.23,340.8Z"/><path class="cls-18" d="M400.54,329.15a3.94,3.94,0,0,1-2.6,1.18,11.54,11.54,0,0,1-3.93-.69,61.16,61.16,0,0,0-17.43-2.34,52.59,52.59,0,0,0-9,.77c-1.85.34-4.91,1.87-6-.66s2.52-5.44,4-7a40.73,40.73,0,0,0,6.76-8.72c1.66-3.07,2.05-6.21,3.38-9.29a5.57,5.57,0,0,1,3-3.1,5.69,5.69,0,0,1,5.52,1.37c3.06,2.65,5.71,7.22,7.92,10.59,2.74,4.19,5.25,8.53,7.88,12.79.78,1.26,1.59,2.74,1.12,4.14A2.59,2.59,0,0,1,400.54,329.15Z"/><path class="cls-19" d="M387.76,320.8a1.38,1.38,0,0,1-.87.71,3.82,3.82,0,0,1-1.35.08A56.07,56.07,0,0,1,379,321a2.92,2.92,0,0,1-1.54-.48,1.5,1.5,0,0,1-.5-1.56c.24-.84,1.26-1.1,1.7-1.86a12.61,12.61,0,0,0,.94-3.06c.26-1,1.47-4.24,2.86-2.51a4.15,4.15,0,0,1,.59,1.34,14.07,14.07,0,0,0,3.82,6c.52.48,1.14,1.07,1,1.76Z"/><path class="cls-20" d="M465.54,372.56c-6.71-2.18-13.34-5.64-19.57-8.88-12.11-6.31-15.52,4.3-16.59,14.51A45.81,45.81,0,0,0,432,398.88c2.33,6.28,9.07,11.62,9.59,18.3.24,3.18-.26,7.65,2.86,8.37,2.62.62,4.39-2.43,6.16-4.46,3.65-4.21,9.8-4.87,15.08-6.66,9.49-3.21,17.56-11.79,18-21.79C484.05,383.33,475.38,375.76,465.54,372.56Z"/><path class="cls-21" d="M450.09,408.52l-.29-.12c-2.7-1.2-3.67-5.53-5.27-7.8a29.53,29.53,0,0,1-3.21-5.2c-2.24-6-3.75-14-1.49-20.3,1.84-5.1,7.7.67,10.86,2.17a97,97,0,0,0,11.76,4.8c6.44,2.1,11.36,6.55,11.2,10.13-.23,5.18-5,10.67-11.21,12.76-1,.34-2.19.66-3.42,1C456.39,406.69,453,409.54,450.09,408.52Z"/><path class="cls-22" d="M452.12,402.66c-2.26-.53-2.34-3.29-3.5-4.94a32.13,32.13,0,0,1-2.61-4.06,36.33,36.33,0,0,1-2.07-8.35c-.14-1.11-.71-4.57.52-5.33s6.77,3,8.09,3.52l11.22,4.63c1.75.72,3.69,1.62,4.33,3.4a4.53,4.53,0,0,1-.91,4.23,11.53,11.53,0,0,1-3.55,2.75,54.79,54.79,0,0,1-7.65,3.56,7,7,0,0,1-3.76.62Z"/><path class="cls-23" d="M654.28,405.52c-11.67-13.16-19.87-33.17-10.33-47.94,4.72-7.3,12.75-11.61,19.54-17,18.33-14.67,27.83-41.54,18-62.85S640,247.11,622.75,263c-10.68,9.85-13.25,17.87-27,22-10.36,3.09-24.2,2.65-29.49,14.31-3.5,7.72-2,19.63-10.16,22a13,13,0,0,1-7.12-.47c-21.49-6.12-35.3-26.83-54.58-38.12-7.08-4.15-15.46-7.05-23.46-5.2s-14.9,9.84-13.21,17.87c1.6,7.58,9.34,11.84,15.18,16.94,11.89,10.38,17.11,26.46,27.5,38.34,9.73,11.11,23.39,17.91,34.75,27.35,35.54,29.53,7.72,72.85-34.63,62.53-2.44-.59-4.9-1.38-7.4-1.18-18.15,1.47,13.26,16.74,14.21,19.06,2.43,6,1.9,12.75,3.51,19,3,11.61,13.22,20.23,24.39,24.6s23.35,5.2,35.3,6.24c21.39,1.85,40.66,11,62.37,10.06,19.44-.84,39.55-8.42,51-24.19a49.57,49.57,0,0,0,4.72-48.9C681.19,429.29,666,418.69,654.28,405.52Z"/><path class="cls-24" d="M638,507.91c-1.81.21-3.65.36-5.47.43-11.14.49-21.9-2.1-33.29-4.84-8.85-2.14-18-4.34-27.79-5.19l-2.14-.18c-10.91-.93-21.22-1.82-30.38-5.4-9.57-3.75-16.43-10.39-18.34-17.78-1.51-5.82-5-13.81-1.8-20.06,4.77-9.35,16.11-6.35,23.68-11.56A43.73,43.73,0,0,0,559.73,420c5.15-17.36-1.65-35.93-18.18-49.66-4.61-3.83-9.45-7.18-14.14-10.42-7.31-5.05-14.21-9.82-19.47-15.83-3.9-4.45-7.09-9.82-10.48-15.51-4.93-8.28-10-16.84-18-23.78-1.5-1.3-3-2.5-4.5-3.65-3.43-2.7-7-5.48-7.48-7.82-.4-1.93,2.33-5.28,5.69-6.06a12.84,12.84,0,0,1,1.29-.22c4.09-.48,9.23,1,14.86,4.31,6.88,4,13.15,9.56,19.8,15.41,10.83,9.54,22,19.4,37.09,23.7a24.55,24.55,0,0,0,9.72,1,18.88,18.88,0,0,0,2.92-.59c11.24-3.26,13.47-14.34,14.79-21a34.8,34.8,0,0,1,1.7-6.49c1.75-3.87,5.81-5.06,14.65-6.85,2.82-.57,5.73-1.16,8.59-2,12.27-3.66,18-10.16,23.54-16.44a99.68,99.68,0,0,1,7.38-7.77,20.46,20.46,0,0,1,11.78-5.19c12.4-1.46,26.05,5.88,31.07,16.71,3.61,7.8,4,17.31,1.11,26.78a49.66,49.66,0,0,1-16.25,24.05c-1.65,1.33-3.44,2.61-5.34,4-5.57,4-11.89,8.55-16.35,15.44-8.16,12.62-10.11,35.92,11.25,60,4,4.47,8.23,8.59,12.36,12.58,8.28,8,16.09,15.52,20.35,24.71a39.66,39.66,0,0,1-3.74,38.84C668.14,498.83,654.36,506,638,507.91Z"/><path class="cls-25" d="M634.9,498.61c-8,.33-16.18-1-24.17-2.25l-54.21-8.75c-6.81-1.1-19.66-5-24.79-9.57-3.77-3.34-5.09-10-1.32-13.3,2-1.81,4.91-2.2,7.57-2.78,16.18-3.53,28.54-17,32.6-32.8,4.78-18.68-1.28-39-12.73-54.51-9.1-12.33-26.63-21.47-38.84-30.68a11.73,11.73,0,0,1-4-4.25c-.8-1.8-.41-4.29,1.34-5.18,2.35-1.2,4.89,1,6.8,2.86,12.12,11.54,32.54,10.89,46.43,2.87,8.33-4.81,11.29-12.54,17.42-19.3,3.14-3.46,7.07-6.1,11-8.7l31.14-20.89c6.78-4.55,14.9-9.3,22.62-6.66,7.24,2.48,11,11.09,10,18.67s-5.87,14.13-11.4,19.41S638.4,332.45,633,337.89a60.53,60.53,0,0,0-4,80.72c7.95,9.82,18.77,16.92,27.26,26.27s14.7,22.61,10.45,34.5c-3.58,10-13.83,16.42-24.27,18.39A52.78,52.78,0,0,1,634.9,498.61Z"/><path class="cls-26" d="M646.35,483.23a63,63,0,0,1-10.45-.51L573,476c-2.28-.24-4.8-.61-6.24-2.4-1.71-2.11-1.06-5.39.64-7.51s4.18-3.43,6.48-4.87c23.11-14.46,26.33-44,18.56-68a97.71,97.71,0,0,0-8-17.89c-2.94-5.19-21.06-14-6.81-20.48,2.74-1.26,5.85-1.38,8.77-2.14,8.78-2.3,12.89-12.22,18.32-18.47,5.64-6.5,12.56-11.7,19.7-16.43,6.18-4.11,16.68-7.81,21.32-13.38,1.39-1.68,2.59-3.61,4.43-4.79s4.62-1.31,5.94.43a4.27,4.27,0,0,1,.1,4.43,12.54,12.54,0,0,1-3.06,3.49c-10.86,9.65-23,18.63-31.1,30.91A75.43,75.43,0,0,0,626.37,428c5.18,6.41,11,11.5,16.63,16.42a134.83,134.83,0,0,1,11.19,10.5c6.94,7.64,12.5,20.75.07,26.48A21.77,21.77,0,0,1,646.35,483.23Z"/><path class="cls-27" d="M644.16,467.37c-2.4.26-5.29-.12-7,0l-24.76,1.31c-6.19.33-13.41,1.27-19.49-.14-2.13-.49-4.14-2.21-4.23-4.4-.09-2.34,2.63-4.59,3.79-6.49a74,74,0,0,0,5-9.94,86.94,86.94,0,0,0,5.07-18.05c.66-3.66,1.81-13.26,6.66-13.83,6.49-.76,7.35,13.36,10.26,17.18,6.61,8.65,15.12,16.36,23.55,23.2,2,1.58,4,3.26,4.85,5.65C649.18,465.85,647,467.06,644.16,467.37Z"/><path class="cls-28" d="M640.51,461.18c-.43,1-1.82,1.26-3,1.31l-21.11.95c-5.49.24-11.24,2.11-16.89,1.45-3.78-.44-3.6-1.4-2.31-4.67,1-2.47,2.32-4.77,3.36-7.2a96.22,96.22,0,0,0,4.47-13c.77-2.92.74-9.55,3.88-11,3.7-1.76,6.19,4.27,7.59,6.69A62.82,62.82,0,0,0,638.42,458c1.18.71,2.57,1.84,2.12,3.14Z"/><path class="cls-29" d="M619.57,455.25c-2.77.17-9.81,3.28-12.16,1.08-2.67-2.51.39-7.31,1.85-9.64,3.11-4.95,6.49,1.62,9,4.17C619,451.68,622.68,455.06,619.57,455.25Z"/><path class="cls-30" d="M598.49,383.74c-4.52,2.15-3.94-8.88-6.43-13.27-1.62-2.87-8.48-1.41-6.84-7.45s1.71-.34,2.62-.58c7.28-1.9,10.12-13,15.9-11.42s-4.78,16.65-5.21,25.28C598.4,378.78,603,381.59,598.49,383.74Z"/><path class="cls-31" d="M702.51,428.32l-.12.11a6.86,6.86,0,0,0-1.71,5.69c.82,7.36,5.94,15,8.65,21.77q4.78,12,8.41,24.45c5,17,11.64,38.52,9.14,56.35-.55,3.91-1,8.5,1.82,11.22,3.16,3,8.34,1.77,12.25-.15,9.23-4.51,14.44-11.23,21-18.63,6.91-7.76,16.69-13.44,24.93-19.7,3.49-2.66,7.41-6.44,6.23-10.68-1.14-4.08-6.13-5.39-10.25-6.39-32.74-8-49.35-39.17-71.52-61.47C709.11,428.6,705.64,425.42,702.51,428.32Z"/><path class="cls-32" d="M732,537.35c-.35-2.59.35-5.55.37-8A98.46,98.46,0,0,0,731,512.71c-1.74-10.67-4.76-21.06-7.79-31.42l-.69-2.35a241.67,241.67,0,0,0-11.16-30.34c-.44-1-.86-2.19-.25-3.08,2.13-3.13,12.07,6.14,13.44,7.77,7.63,9.11,15.29,18.28,24.27,26.11,10,8.74,20.3,13.11,32.52,17.45a6,6,0,0,1,3.58,3c1,2.24,0,5-1.78,6.7-3.2,3.07-8.26,5.28-11.92,8a81.72,81.72,0,0,0-13,11.29L756,528.39c-3.81,4.33-8.5,10.52-13.64,13.29-2.53,1.37-5.91,1.59-8.13-.23A6.12,6.12,0,0,1,732,537.35Z"/><path class="cls-33" d="M736.91,519.66c-1.44-.78-2.23-3.12-2.46-4.48-.77-4.48,1.81-8.88,1.08-13.37-1.49-9.15-7.08-17-9.81-25.76a12.5,12.5,0,0,1-.72-3.9,4.67,4.67,0,0,1,1.51-3.55c3.89-3.23,7.61,3.38,9.24,5.86a33.32,33.32,0,0,0,12.32,10.66c4.39,2.35,9.13,3.57,13.64,5.58,3.11,1.39,4.22,4.67.58,6.38-4.36,2.06-8.21,3.95-11.78,7.26a41.93,41.93,0,0,0-4.52,4.9c-1.29,1.66-2.22,4.13-3.67,5.57-.81,1.49-2.27,5-4.3,5.1A2.07,2.07,0,0,1,736.91,519.66Z"/><path class="cls-34" d="M71.55,546.3a126.77,126.77,0,0,1-53.42,21.35c-38.94,5.75-67.13-9.29-99.71-27.37-36.65-20.34-23-47.21-5-78.43,18.64-32.33,23.22-71.86,14.68-108-8.81-37.27-44.28-67.72-25.66-108.25,12.73-27.72,48.4-40.49,76.51-44.91,6.45-1,13.59-1.44,19,2.27,6.28,4.34,8,12.68,9.83,20.08C12,239.6,33.05,253.5,50.32,250.62c11-1.82,21.71-8.89,32.34-5.71,14.08,4.21,17.52,22.72,28.45,32.52,15.06,13.5,42.47,8.9,53.65,25.76,8.09,12.2,2.68,28.61,5.42,43,7.39,38.79,68.06,48.26,75.55,87,3.59,18.62-9.24,38.91-27.6,43.65C190.44,484,156,450,132.38,469.72,121.87,478.5,116.84,492,110.19,504A126.74,126.74,0,0,1,71.55,546.3Z"/><path class="cls-35" d="M1.54,558.9c-29,0-52.92-13.29-78.27-27.36-9.78-5.43-15.42-11.26-17.24-17.82-3.28-11.86,5.34-28.24,16.08-46.88,19.38-33.61,25.12-75.63,15.75-115.29-3.24-13.73-9.59-26.2-15.73-38.26-11.21-22-20.9-41.05-10.58-63.52,13-28.36,56.1-37.18,69-39.2a40.53,40.53,0,0,1,6.24-.59,9.84,9.84,0,0,1,5.48,1.21c2.72,1.88,4.09,7.36,5.42,12.66l.41,1.66C3,244.75,24.75,261,45.63,261a38.81,38.81,0,0,0,6.33-.51A82.4,82.4,0,0,0,64.65,257c4.51-1.5,8.78-2.92,12.27-2.92a9.73,9.73,0,0,1,2.88.4c4.75,1.41,8.15,7.09,12.09,13.67C95.2,273.7,99,280,104.43,284.88c8.66,7.76,19.81,10.61,29.65,13.13s18.37,4.7,22.35,10.71c3.31,5,3.15,12.16,3,20.46-.13,6.11-.27,12.42,1,18.87,4.45,23.37,24.3,37.43,41.81,49.84,15.82,11.2,30.76,21.79,33.74,37.22,2.58,13.38-7.09,28.67-20.28,32.08a23.06,23.06,0,0,1-5.8.69c-8.07,0-17.3-3.27-27.07-6.74-10.63-3.76-21.62-7.66-32.54-7.66A36.77,36.77,0,0,0,126,462.05c-9.64,8.05-15,18.62-20.23,28.85-1.45,2.86-2.83,5.57-4.29,8.19a116.83,116.83,0,0,1-35.6,39,117,117,0,0,1-49.18,19.68A104.62,104.62,0,0,1,1.54,558.9Z"/><path class="cls-36" d="M1.53,543.36A106.65,106.65,0,0,1-54.6,529.25c-7.81-4.53-15.29-10.38-19.23-18.5-6.28-13-.61-23.81,6.75-34.31,7.15-10.2,12.09-21.26,16-33.33a178,178,0,0,0,3.56-95c-3.66-15.48-10.42-28.77-17-41.61C-76.07,283.76-81.78,271.2-74.82,256c4.95-10.76,17.31-17.87,26.82-21.95,7.6-3.26,20.61-9.42,29.25-6,6,2.35,6.1,5.27,8.16,10.74,3.29,8.69,5.84,13.83,13.65,20.58C14.75,269.47,30.06,276,45.63,276c10.24,0,18.89-7.74,29.12-2.87,9.06,4.31,12.51,14.59,18.61,21.87,7.37,8.78,15.77,12.06,26.93,13.81,9,1.4,19.14,3.83,23.3,11.88,2.68,5.17,2.09,11.33,2.13,17.15.23,33.07,22.65,54.49,47.78,72.29C201.76,416,213.91,423,219,432c3.17,5.6,3.05,13.63-2,17.59s-12.25,2.39-18.39.66c-27.8-7.86-56.86-20.93-82.25.28-17,14.17-21.67,35.21-34.72,52a106.82,106.82,0,0,1-54.64,37A104,104,0,0,1,1.53,543.36Z"/><path class="cls-37" d="M-1.38,538.4a101.08,101.08,0,0,1-50.71-13.47c-8.71-5.06-14.35-10.42-17.24-16.37-4.84-10-1.34-18.28,6.34-29.25,6.91-9.86,12.2-20.88,16.65-34.67A182,182,0,0,0-42.67,347c-3.8-16.06-10.7-29.61-17.37-42.72-14.25-28-19.1-51.27,14.12-67.71,8.34-4.12,19.16-4.65,26.4,1.2a36.89,36.89,0,0,1,6.17,7c15.53,21,30.58,36.27,59,36.27,4.71,0,9-1.33,12.81-2.51,3.26-1,6.33-2,9.19-2a11.12,11.12,0,0,1,5,1.12c4.8,2.28,7.87,7.12,11.12,12.24a75,75,0,0,0,5.81,8.32c9.2,11,19.85,14,30,15.54,8,1.25,16.57,3.32,19.63,9.24,1.68,3.23,1.63,7.47,1.59,12,0,1,0,2,0,2.93.25,36.29,25.36,58.95,49.89,76.33,1.49,1.06,3.11,2.15,4.79,3.29,7.33,5,15.64,10.59,19.25,17,2,3.55,2.19,8.89-.74,11.19a7.84,7.84,0,0,1-5,1.4,34.91,34.91,0,0,1-9-1.63c-3.49-1-7.09-2.08-10.57-3.14C176,438.23,162.19,434,148.5,434a53,53,0,0,0-35.35,12.69c-10.94,9.13-17.05,20.77-23,32-3.88,7.39-7.55,14.36-12.5,20.72A101.68,101.68,0,0,1,25.63,534.7a98.61,98.61,0,0,1-24.24,3.66C.47,538.39-.46,538.4-1.38,538.4Z"/><path class="cls-38" d="M1.62,520.09a90.11,90.11,0,0,1-41.4-9.63c-4.86-2.45-9.82-5.7-11.64-10.82-1.52-4.27-.5-9.12,1.69-13.09,3.4-6.18,18.09-32.32,20.67-40.3A197,197,0,0,0-21.9,357a256.7,256.7,0,0,0-9.18-38.26c-3.45-11-12.51-18.29-17.59-28.52-4.47-9-6.18-19.91-2.17-29.13s14.76-15.75,24.39-12.87c9.18,2.74,14.28,12.16,20.21,19.69,9.16,11.64,21.89,18.55,35.7,23.17,13.06,4.37,27-3.83,39.58,1.45,11,4.63,14.62,19.16,24.93,25.21,8.16,4.78,19,3.32,26.87,8.51,8.64,5.67,10.86,17,14,26.91a97.37,97.37,0,0,0,34.05,48.14c3.59,2.71,7.5,5.3,9.71,9.21s2,9.67-1.8,12.1c-6.42,4.13-16.18-3.73-22.79-4.84a55.64,55.64,0,0,0-28.1,2.65c-20.86,7.64-36,29.44-46,48.35-3.72,7.08-6.93,13.18-11.05,18.49C52.23,508.58,27.24,519.83,1.62,520.09Z"/><path class="cls-39" d="M.78,505.76a68.45,68.45,0,0,1-7.15-.07c-6.92-.44-14.38-2.28-18.61-7.78-3.62-4.7-4.1-11.21-2.8-17s4.14-11.09,6.7-16.44c26.43-55.25,22.25-124-10.68-175.63-2.13-3.33-4.4-6.67-5.49-10.47s-.81-8.26,1.79-11.25c11.42-13.17,20.37,13.67,25.75,19.3,11.22,11.75,28.51,20.23,44.93,19.64,10.62-.39,22.21-1.39,30.94,4.67,7.26,5,11,14.1,18.45,18.91,6.87,4.44,15.78,4.55,22.92,8.53,9.13,5.1,12,14.29,15.78,23.28,4.29,10.26,11.31,19.61,17.25,29.06,1.67,2.66,3.4,5.82,2.33,8.77-2.61,7.13-15.63,5.22-21.34,6.75-9.45,2.54-18,8-25,14.75-10.6,10.13-18.17,22.94-25.89,35.42C54.86,481.67,31.66,504.42.78,505.76Z"/><path class="cls-40" d="M4.87,497.27c-7.42-1-11.41-7-7.35-17,6.08-15,12.55-29.08,16-45.09A201.85,201.85,0,0,0,17,375.44c-1.46-16.83-5.64-31.86-10.71-47.88-.89-2.82-1.67-6.24.3-8.45,2.23-2.51,6.28-1.62,9.46-.52,8.21,2.83,14.31,6.94,23,6.75,10.29-.23,19.41.55,28,7,6.11,4.57,10.76,11,17.22,15.05,6.11,3.84,13.45,5.35,19.59,9.14,10.51,6.5,28.91,27.87,20.06,40.65-3.79,5.46-10.17,8.44-16.29,11-9,3.84-19,9.13-24.85,17.28-9.28,12.9-15.68,27.41-25.95,39.79-11,13.28-24.75,24.75-41,30.52A23.82,23.82,0,0,1,4.87,497.27Z"/><path class="cls-41" d="M7.21,492.42a12.77,12.77,0,0,1-1.67-.11c-1.38-.19-3.21-.72-4-2.17-1-1.66-.72-4.59.67-8,1-2.56,2.09-5.1,3.13-7.63,5.23-12.64,10.16-24.58,13.11-38.28A206.16,206.16,0,0,0,22,375c-.66-7.62-3.18-14.83-5.52-22.06-1.82-5.64-7.8-18.92-5.06-24.77,2.9-6.19,20.14,2.16,27.07,2.16h.71l2.73,0c8.47,0,15.49,1,22.17,6a70.15,70.15,0,0,1,7,6.34,63.19,63.19,0,0,0,10.54,8.94,63.31,63.31,0,0,0,10.71,5.05,56.73,56.73,0,0,1,8.91,4.11c6.73,4.17,17.63,15.71,19.7,25.69.68,3.23.31,5.8-1.12,7.86-3,4.3-8.39,6.85-14.13,9.28-8.23,3.49-20,9.24-27,19-4.1,5.7-7.66,11.71-11.11,17.53-4.63,7.82-9,15.21-14.63,22-11.86,14.31-24.93,24.06-38.83,29A21.16,21.16,0,0,1,7.21,492.42Z"/><path class="cls-42" d="M24,468.75c-5.71-3,6.93-19.41,9.08-29.4a221.27,221.27,0,0,0,3.84-65.54C36.32,367,34.36,359,31,353c-1.36-2.36-2.2-5.67-.24-7.58,1.69-1.65,4.45-1.23,6.71-.55,6,1.79,12.13-.7,17.64,3.43a59.51,59.51,0,0,1,5.47,5,75.88,75.88,0,0,0,13.09,10.95,75.55,75.55,0,0,0,13.19,6.31,46.83,46.83,0,0,1,6.53,2.92c3.94,2.44,12,7.45,9.83,13.06-2,5.17-13.47,8-18.09,10.83C78,401.74,71.44,407,66.55,413.81c-4.49,6.24-8.22,12.54-11.83,18.64-4.51,7.62-8.41,14.2-13.28,20.07S29.7,471.77,24,468.75Z"/><path class="cls-43" d="M48.64,414.84c-2.32-.24-3.44-2-4.06-4.23-1.43-5.09.2-10.89.9-16,1-7.06,3.6-14,3.12-21.22A19.9,19.9,0,0,0,45.28,364c-1.69-2.78-2.21-4.27,1.23-6,7.56-3.8,11.18,10.81,19.6,16.11,3.38,2.13,19.83,1.12,18,8.63a3.77,3.77,0,0,1-1.41,1.92c-2.5,2-5.73,2.82-8.39,4.6a98.78,98.78,0,0,0-8.49,6.36,93.78,93.78,0,0,0-9.1,8.73,33.26,33.26,0,0,0-4,4.82c-1.59,2.65.87,5.69-3.47,5.72A5.74,5.74,0,0,1,48.64,414.84Z"/><path class="cls-44" d="M310.82,86c-6.45-11.74-20.77-20.17-20.59-33.57.1-7.62,5.1-14.14,8.5-21,13.7-27.52-2.32-60.29-28.76-74-14.38-7.45-30-3.64-44-10.33-15.46-7.36-25.19-23.34-37.51-34.59a87,87,0,0,0-32-18.52c-24.05-7.68-71.81-1.05-74.64,31.71-.88,10.11,4,20.2,11.44,27.08C111-30.88,152.77-25.38,148,8.28c-1.08,7.61-5.61,14.88-4.36,22.47,2,12.31,17,17.08,25.41,26.3,7.93,8.69,9.75,21.37,9.14,33.12s-3.3,23.39-2.84,35.15c.61,15.42,7.25,31.09,19.76,40.14s31.13,10,43,.16,16.63-28.57,31.44-32.91c5.82-1.7,12.07-.67,18.08-1.41C307.5,128.84,320.45,103.48,310.82,86Z"/><path class="cls-45" d="M217.51,162.62A28.87,28.87,0,0,1,201,157.36c-9.25-6.69-15.09-18.82-15.63-32.43-.24-6.29.55-12.76,1.39-19.61.58-4.73,1.18-9.62,1.44-14.62.91-17.28-3-30.87-11.74-40.4a75,75,0,0,0-12-10c-6.37-4.54-10.28-7.56-10.87-11.17-.39-2.37.63-5.59,1.82-9.32a61.08,61.08,0,0,0,2.57-10.13c4.3-30.31-20.66-43.21-38.89-52.62-7.47-3.86-14.52-7.5-19-11.62-5.65-5.2-8.81-12.42-8.25-18.86.69-8,5.13-14.07,13.59-18.67,7.93-4.32,19-6.79,30.26-6.79a60.69,60.69,0,0,1,17.79,2.42A77.11,77.11,0,0,1,181.7-80.08a161.12,161.12,0,0,1,11.17,11.74c8.21,9.21,16.71,18.74,28.77,24.49,8.33,4,16.86,4.9,24.38,5.71,7,.76,13.58,1.48,19.35,4.47,21,10.86,35.77,37.82,24.41,60.65-.72,1.44-1.56,2.93-2.44,4.5-3.28,5.85-7,12.48-7.11,20.79-.16,12.39,7.7,21.29,14,28.43,3.08,3.5,6,6.79,7.81,10.09,2.92,5.31,2.67,12.39-.67,18.94s-8.94,10.9-15,11.64a55.9,55.9,0,0,1-6,.26,48,48,0,0,0-13.63,1.49c-12.35,3.61-19,13.55-25,22.33-3.28,4.86-6.37,9.45-10,12.45a22.44,22.44,0,0,1-14.28,4.72Z"/><path class="cls-46" d="M207.47,147.36a10.52,10.52,0,0,1-3.45,0c-9.27-1.76-13.38-14.92-13.7-23-.2-5.08.49-10.69,1.29-17.19.61-5,1.24-10.14,1.53-15.66.63-12-.67-24.4-5.49-35.53-5.3-12.26-15.41-18.46-23.94-27.82a12.18,12.18,0,0,1-3.46-7.92c0-4.27,2.84-7.84,3.34-12,.53-4.4-.18-9.73-.88-14.06a54.17,54.17,0,0,0-15.07-29.1c-12.42-12.73-29-19-43.87-28.13-3.19-2-6.67-4.59-6.87-8.33-.14-2.75,1.66-5.31,3.95-6.83,6.71-4.47,16.93-5.65,24.75-5.65a46.11,46.11,0,0,1,13.23,1.71A61.91,61.91,0,0,1,161.58-69c3.2,2.92,6.55,6.67,10.09,10.63,8.77,9.85,18.72,21,33.52,28.06,10.63,5.06,20.93,6.19,29.21,7.09,5.79.63,10.79,1.17,14.07,2.87,14.33,7.42,25.2,25.94,17.88,40.64-.55,1.1-1.29,2.43-2.08,3.83-3.76,6.69-8.88,15.83-9,28-.12,8.87,2.64,17,7,24.62,1.47,2.56,2.88,5.56,4.93,7.71,2.83,3,6.6,4.43,8.92,8,2.47,3.83,2.72,9.51-.71,12.52-3,2.59-7.34,2.34-11.27,2.43a49.44,49.44,0,0,0-39.89,22.47c-2.56,4-4.55,8.45-7.68,12A16,16,0,0,1,207.47,147.36Z"/><path class="cls-47" d="M206.1,130.17a6.41,6.41,0,0,1-2.34-.45c-6.68-2.67-6.1-11.75-5.9-14.73a52.74,52.74,0,0,1,2.86-12.64A43.08,43.08,0,0,0,203.13,92c.79-15.07-1.33-28.54-6.3-40a62.78,62.78,0,0,0-10.91-16.72,37.62,37.62,0,0,0-4.18-3.71c-3.35-2.72-7.14-5.79-8.84-9.95s-.87-8.3-.16-11.52a28,28,0,0,0,.58-3.22,55.77,55.77,0,0,0-.74-14.29c-1.56-9.72-8.73-16.72-17-24.83-1.8-1.76-3.67-3.58-5.5-5.47-.11-.11-10.9-12.71-8.09-20.77a7.74,7.74,0,0,1,6.65-5.15,8.17,8.17,0,0,1,1.11-.07,12.7,12.7,0,0,1,6.57,2.23l2.62,1.55c4.28,2.5,8.7,5.08,12.29,9.28,1.85,2.17,3.51,4.44,5.11,6.65,1.11,1.52,2.16,3,3.26,4.35,7.22,9.16,14,15,21.27,18.35,12.21,5.82,23.93,7.1,32.48,8,9.71,1,21.77,5.14,24.07,18.63,1.6,9.39-3.07,17.89-6.82,24.71S245.35,42.75,245.23,52a50.5,50.5,0,0,0,5,21.77c.28.62,1.13,2,1.95,3.29,3.43,5.51,7.71,12.37,6.12,18a8.41,8.41,0,0,1-4.4,5.28,15.43,15.43,0,0,1-7.23,1.38H245c-5.7.08-12.08,3.43-19.52,10.25-.56.51-2.32,2.8-3.61,4.46-5,6.48-8.84,11.21-12.45,12.94A7.46,7.46,0,0,1,206.1,130.17Z"/><path class="cls-48" d="M207.21,124.87a2,2,0,0,1-1.59.21c-3.18-1.27-2.94-7.19-2.78-9.77.52-7.91,4.87-15.21,5.28-23C209,76.42,206.7,62.2,201.42,50a67.6,67.6,0,0,0-11.76-18.06c-3.45-3.89-10.21-7.52-12.13-12.23-1.68-4.12.37-8.22.77-12.37a62,62,0,0,0-.78-15.56c-2.2-13.74-13.57-22.41-23.89-33-1.86-1.9-11.93-16.5-4.39-17.47,1.59-.21,3.1.65,4.47,1.48,4.95,3,10,5.46,13.68,9.79,2.94,3.45,5.45,7.3,8.25,10.85,6.34,8,13.68,15.46,23.1,19.8,12.93,6.16,25.13,7.49,34,8.46S250.72-4,252.46,6.19c1.28,7.5-2.61,14.8-6.27,21.46-4.54,8.27-5.84,15-6,24.23a55.85,55.85,0,0,0,5.43,23.9c1.86,4.09,12.26,16.93,6,20.1-2,1-4.47.8-6.76.84-8.69.12-16.69,5.94-22.83,11.56C219.5,110.62,211.51,122.8,207.21,124.87Z"/><path class="cls-49" d="M215.61,98.4a3.56,3.56,0,0,1-.9-1.63c-.41-1.37.32-2.8.94-4.08,4.3-8.92,2.95-18,1.71-27.43a91.32,91.32,0,0,0-6.6-24.44A73.87,73.87,0,0,0,201,24.61c-3.65-4.65-10-7.89-12.67-13.08-2.16-4.24-.23-8.07.2-12.33.55-5.53-.1-11.52-2.72-16.47-.75-1.41-1.66-2.92-1.34-4.48a3.12,3.12,0,0,1,2.32-2.36c4.19-.94,10,7.59,13.44,9.66,10.24,6.1,22.13,6.83,33.71,8.09s12.28,5.74,12.65,7.9c.84,4.92-2.47,10.94-5.39,16.26-5.6,10.19-6.82,18.55-7,28a65.3,65.3,0,0,0,2.56,18.16c1.29,4.67,9.35,13.59,8.48,18A6.71,6.71,0,0,1,241,86.63c-2.89,1.13-6,.66-8.91,1.76a30,30,0,0,0-10,6.06C220.78,95.61,217.52,100.1,215.61,98.4Z"/><path class="cls-50" d="M228.67,81.31A4,4,0,0,1,227,78.63c-2.42-13.72-2.37-26.88-8.08-40.06a73.43,73.43,0,0,0-9.52-16.08,72,72,0,0,0-6.22-7c-4.32-4.24-7.58-6.94-7.38-13.67.07-2.44,1.37-5,3.68-5.8a9.06,9.06,0,0,1,5,.22l22,5.18c3.09.73,6.19,1,9.19,1.46,2.7.45,4.83,1.07,3,4.59C232.92,19,228,29.75,227.31,42.86a71.14,71.14,0,0,0,2.59,23.22c1,3.53,4.11,8,4.44,11.51C234.61,80.55,231.66,83.33,228.67,81.31Z"/><path class="cls-51" d="M713.79-109.41c-7-12-18.21-20.91-29.92-28.35-61-38.77-138.08-43.8-209.61-33.38-15,2.18-30.33,5.18-42.89,13.61a57.07,57.07,0,0,0-24.79,46.66c.1,33.1,39.29,50.73,38.11,81.72C444-9.64,433.42,8.7,439,28.5c3,10.75,12.45,19.72,12.1,30.89-.42,13.1-13.8,21.75-19,33.79-11.23,26.09,18.53,58.39,4,82.79-4.45,7.48-12.24,12.24-18.14,18.62s-9.84,16.47-4.85,23.6c8.9,12.72,29.67-.21,44.28,5,10.83,3.9,15.64,17,25.68,22.61,11.55,6.51,27.19.68,34.84-10.16s8.7-25.09,6.88-38.23c-1.52-11-5-22-11.8-30.75-10.81-13.95-30.46-24-30.24-41.68.21-17,19.78-29.16,19.42-46.1-.34-16.49-19.54-28.37-18.87-44.85.26-6.42,3.67-12.4,8.21-16.95,19.47-19.58,52.7-12.52,77.28.06S618.32,47.09,645.76,44c24.83-2.8,46.18-24.56,48.51-49.43,1.29-13.75-2.47-28.52,3.64-40.9,4.36-8.84,13.07-14.82,18-23.38C722.72-81.77,720.75-97.41,713.79-109.41Z"/><path class="cls-52" d="M496.83,238.57a11.68,11.68,0,0,1-5.82-1.44c-3-1.69-5.81-5-8.79-8.51-4.68-5.52-10-11.77-18.41-14.8a35.14,35.14,0,0,0-12.07-1.92,93.44,93.44,0,0,0-13,1.18,75.15,75.15,0,0,1-9.39.92c-4,0-4.61-.93-5-1.54-1.41-2,.5-7.29,4-11.08a82,82,0,0,1,6.26-5.86c4.46-3.91,9.51-8.34,13.13-14.43,9.76-16.37,4.47-34.34-.19-50.2-3.7-12.59-7.2-24.48-3.2-33.76,1.54-3.57,4.39-7.18,7.4-11,5.64-7.14,12-15.24,12.39-26.42.3-9.46-3.93-17.06-7.67-23.76-2-3.6-3.9-7-4.8-10.18-2.78-9.81-.51-19.56,2.12-30.84,1.76-7.54,3.58-15.35,3.9-23.7.73-19.08-10.59-33.63-20.57-46.46-9-11.56-17.49-22.48-17.53-35.67a47.24,47.24,0,0,1,20.36-38.33c11.17-7.5,25.87-10.13,38.77-12A425.92,425.92,0,0,1,540-165.86c55.78,0,103.4,12.29,141.55,36.54,8.28,5.26,20,13.57,26.64,24.93,5.81,10,6.61,21.68,2,29.73-1.75,3.07-4.45,6-7.3,9.17-3.75,4.12-8,8.79-10.93,14.73-5.15,10.43-4.81,21.59-4.52,31.44a106.71,106.71,0,0,1-.11,13c-1.88,20-19.67,38.17-39.67,40.42a48.15,48.15,0,0,1-5.39.3h0c-17.68,0-34.77-9.3-52.87-19.15-4.25-2.31-8.64-4.7-13-6.93C559.59-.32,542-5.06,526.87-5.06c-15.94,0-29.57,5.23-39.41,15.12-6.83,6.87-10.78,15.25-11.11,23.61-.48,11.69,5.65,20.82,11.06,28.87,4,5.89,7.7,11.46,7.81,16.59.11,5.42-3.65,11-8,17.55-5.29,7.91-11.29,16.88-11.43,28.21-.2,16.48,11.27,27.2,21.39,36.66a101.42,101.42,0,0,1,10.95,11.28c5,6.45,8.3,15.19,9.79,26,1.26,9.08,1.39,21.84-5.14,31.1C509.18,235,502.62,238.57,496.83,238.57Z"/><path class="cls-53" d="M495.14,234.38c-2.33-.7-4-3.2-5.93-5.44-4-4.77-8.24-9.45-13.3-13.2-7.2-5.33-13.39-6.42-22.1-7.61-2.1-.29-4.39-.67-5.8-2.25-1.75-2-1.42-5.14,0-7.33,2.82-4.27,6.08-5.72,8.13-10.76a46.85,46.85,0,0,0,3.5-19.25c-.36-13.63-5.54-26.59-9.34-39.51-3.14-10.7-2.11-21.76.33-27.44,1-2.28,3.64-5.64,6.21-8.9,4.22-5.34,5.75-12.89,9.39-18.67,3-4.7,8.83-8.17,12.54-2.27,3.91,6.2-1.43,12.23-4.71,17.13-6.33,9.46-8.85,21.24-9,37.19-.18,14.64,4.47,31.43,15.06,42.09,9.17,9.24,18.59,18.69,23,31.25,2.92,8.32,6.17,28.13-3,33.94C498.09,234.59,496.51,234.79,495.14,234.38Z"/><path class="cls-54" d="M459.18,20.14c-6.55.63-.53-20.76.37-24.61,1.77-7.56,3.76-16.13,4.12-25.43.69-18-8-35.76-19.47-49.22-11.05-12.94-21.47-25.45-14.81-43.92,7.27-20.17,26.51-22.75,44.82-25.42a406.23,406.23,0,0,1,58.29-4.4c48,0,94.79,10.21,135.73,36.15,7.93,5,15.91,11,19.7,19.55,7.63,17.29-10.43,26.5-17.13,40.07-6.33,12.83-5.94,25.86-5.63,36.34a98.86,98.86,0,0,1-.06,11.24c-1.33,14.14-14.36,27.42-28.47,29a34.4,34.4,0,0,1-4,.22c-14.33,0-29.79-8.42-46.16-17.33-4.25-2.31-8.6-4.67-13-6.92-18.08-9.25-37.2-14.35-53.86-14.35-12.29,0-25.46,3-36.07,9.92a49.35,49.35,0,0,0-14.08,13.8c-2.59,3.87-4.76,14-9.88,15.22A2.89,2.89,0,0,1,459.18,20.14Z"/><path class="cls-55" d="M495.57,219.23c-5.1-.72-9.48-8.39-13.7-11.52-4.9-3.63-18.35-3.7-18.91-11.48-.17-2.29,3.62-11.13,4.45-14,1.34-4.7,2.74-8.88,8.5-6,8.35,4.15,14.83,18.19,17.75,26.51C495.44,207.81,497.38,214,495.57,219.23Z"/><path class="cls-56" d="M632.32,4.22a35.12,35.12,0,0,1-12.09-1.38C609.86-.22,601-6.92,591.77-12.48a144.64,144.64,0,0,0-58.71-19.61c-9.31-1-21.65-2.68-30.6.64-7.47,2.77-14.62,10.87-23.1,10.51-7.59-.31-5.38-7.2-5.12-13.79,1-26.35-13.74-45.3-24.5-59.13-6.44-8.28-12.52-16.09-12.54-21.62-.05-21.9,24.12-24.48,40.56-27.59a281.81,281.81,0,0,1,177.43,24.6c7.31,3.68,14.81,7.92,19.62,14.76,5.9,8.38,3.11,12.79-2.53,20.21-10.63,14-17.19,30.5-17.48,48.19-.17,10.68,1.5,22.52-4.95,31C645.75,1.15,639.19,3.78,632.32,4.22Z"/><path class="cls-57" d="M559.68,275.83c-14.72,0-23.71-9.89-24.69-19.19A28.42,28.42,0,0,1,536.62,245c2.6-7.95,6.93-15.4,11.11-22.61,7.11-12.27,13.83-23.86,10.92-35.83-2.27-9.34-9.92-16.38-18-23.83-1.84-1.69-3.74-3.44-5.55-5.21-14.28-13.88-19.27-29.5-13.35-41.77a43.83,43.83,0,0,1,7-9.73c3.14-3.61,5.86-6.72,6.27-10.28.32-2.86-.93-6.1-2.25-9.53-.55-1.43-1.12-2.91-1.61-4.45-4.07-12.75-.84-26.87,8-35.15a19.94,19.94,0,0,1,14-5.47c10.57,0,21.87,7.06,32.79,13.88,7.41,4.62,14.4,9,20,10.38,3.23.81,6.56,1.58,9.78,2.32,12.14,2.78,24.69,5.66,36,11.83,10.64,5.77,22.07,18.1,29.83,32.18,14.45,26.21,12.64,50.51-4.73,63.42-10.42,7.76-23.83,7.82-35.65,7.87-1.27,0-2.53,0-3.78,0-15.18.18-25,3.91-29.26,11.1-2,3.45-2.8,7.77-3.61,12.34l-.13.73c-2.69,15-5.92,27-10.15,37.51-6.19,15.43-14.32,25-24.85,29.29a25.64,25.64,0,0,1-9.78,1.86Z"/><path class="cls-58" d="M676.25,116.1c-7.37-13.36-18.07-24.91-27.84-30.21C634.68,78.45,618.9,76,603.75,72.2c-18.39-4.61-46-35-62.13-20-7.9,7.37-10,19.68-6.69,30,1.7,5.31,4.7,10.53,4.06,16.07-1,8.59-10,13.82-13.75,21.61-5.9,12.24,2.59,26.55,12.33,36s21.73,18.24,24.94,31.44c5.24,21.54-15.23,40.11-22.14,61.18a23.08,23.08,0,0,0-1.4,9.61c1.24,11.76,16.65,17.68,27.6,13.22s17.7-15.54,22.1-26.52c4.7-11.73,7.64-24.09,9.87-36.53.9-5.07,1.74-10.29,4.35-14.73,6.41-10.87,20.89-13.41,33.51-13.56s26.39.62,36.51-6.91C690.76,159.81,687.19,136,676.25,116.1Z"/><path class="cls-59" d="M559.68,260.83c-4.33,0-9.41-2.37-9.77-5.76a14.2,14.2,0,0,1,1-5.45c2.12-6.45,5.87-12.91,9.83-19.75,7.9-13.63,16.86-29.07,12.53-46.91-3.35-13.74-13.49-23.08-22.43-31.31-1.85-1.7-3.59-3.31-5.26-4.93-6.94-6.75-13.81-17.22-10.29-24.5a32.77,32.77,0,0,1,4.81-6.39c4-4.56,8.94-10.24,9.87-18.44.74-6.53-1.42-12.12-3.15-16.62-.5-1.29-1-2.51-1.32-3.62-2.3-7.22-.67-15.28,4-19.61a5,5,0,0,1,3.79-1.45c6.27,0,16.14,6.17,24.85,11.6,8.43,5.27,16.4,10.24,24.24,12.21,3.37.85,6.78,1.63,10.08,2.39,11.66,2.68,22.69,5.21,32.25,10.39,8.13,4.41,17.49,14.71,23.85,26.24,5.06,9.19,7.86,18.48,7.89,26.17,0,7.86-2.74,13.74-8.44,18-6.47,4.81-16.33,4.85-26.77,4.9-1.3,0-2.6,0-3.89,0-20.79.24-34.92,6.47-42,18.49-3.41,5.77-4.5,11.91-5.46,17.32l-.13.72c-2.5,14-5.46,25-9.3,34.57-4.53,11.29-10.11,18.35-16.58,21a11.09,11.09,0,0,1-4.13.75Z"/><path class="cls-60" d="M586.63,165c-9.58-2.3-11.56-14.52-18-21.08-5.5-5.62-15.84-10.25-17.07-18.59-1.48-10,10.75-19.69,10.73-31.38,0-5.85,1.35-12.91,6.83-15,8-3,21.42,9.48,29.52,11.51,3.5.88,7,1.67,10.32,2.44,11.15,2.56,20.74,4.77,28.51,9,10.11,5.48,29.32,28.79,22.06,40.88-2.82,4.7-8.43,7.16-13.9,7.58-12.33.93-20.14-1.21-32.46,3.27-8.07,2.93-15.91,12.83-25.15,11.64A12.15,12.15,0,0,1,586.63,165Z"/><path class="cls-61" d="M589.69,149.38c-4.86-.34-6-5.6-8-9.4a32.14,32.14,0,0,0-11.6-12.68c-3.42-2-7.07-4.82-7.33-8.79a13.23,13.23,0,0,1,1.15-5.32Q568,102.24,572,91.27c3.07-8.31,9-5,14.53-1.45,8.33,5.36,17.67,7.38,27.21,9.54,14.4,3.27,27.64,9.49,35.17,22.93,1.85,3.31,2.21,7.76-.16,10.72-3.51,4.36-10.23,3.27-15.8,2.74A47.88,47.88,0,0,0,601.41,144c-3.22,2.23-6.39,5-10.28,5.38A7.8,7.8,0,0,1,589.69,149.38Z"/><path class="cls-62" d="M594.27,128c-4.69-1.19-8.41-5-11.75-8.65-2.9-3.15-5.87-6.42-7.26-10.47-5.33-15.55,10.5-11.81,19-9.59,8.81,2.29,18,4.12,26.28,8,2.25,1.06,9,3.74,8.18,7-.73,3-16.62,8.67-19.61,10.19-4.23,2.16-8.8,4.38-13.51,3.74C595.16,128.2,594.71,128.12,594.27,128Z"/><path class="cls-63" d="M158.34,139c-.21-.31-.41-.63-.61-.95-7.21-11.48-10.66-21.77-11.28-35.56-.7-15.49-.18-32.31-9.38-44.8-7.71-10.48-21.19-16.1-27.32-27.58-5.21-9.74-4-21.47-4-32.52C105.56-24.59,89.64-44.15,67-47.31,54.25-49.1,30-44.58,18-38.19-.7-28.19-2.49-5.76-5.93,12.71c-6.55,35.14-46.61,50.88-46.61,87.65a66,66,0,0,0,22.26,49.56c6,5.23,13.08,9.41,20.87,11,21.48,4.29,44.23-11.59,64.78-4,10.78,4,18.51,13.9,22.57,24.65,4.22,11.17,2.57,23.73,9.93,32.91,4.71,5.88,15,11.24,21.15,15.87,6.52,4.94,32.06,28.39,41.45,21.81,8.78-6.16,5.86-28.46,7.32-38.25C161.68,187.64,173.2,162.13,158.34,139Z"/><path class="cls-64" d="M138.11,229.15c-12.62,1.94-32.86-17.7-37.63-27.73s-6.9-20.87-11.9-30.63A59.82,59.82,0,0,0,51,140.59c-25.4-6.68-49.69,17.06-71.45-2a50.72,50.72,0,0,1-17.13-38.14v-.13c0-14.25,9.13-25.08,19.71-37.61C-5,47.59,5.52,32,9.12,12.19,10.74,3.28,11.92-5.9,16-14c8-15.68,28.48-18.75,44.56-18.75a32.72,32.72,0,0,1,4.36.25c36,5.05,19.07,45.18,29.8,67.59,6.59,13.75,22.74,20.55,30.55,33.65,14,23.58,4.23,52.62,19.72,77.29.23.36.46.73.71,1.11,8.6,13.39,8.26,33.23,6.69,48.4-.87,8.32-2.08,17.82-5.78,25.44C144.09,226.32,141.21,228.67,138.11,229.15Z"/><path class="cls-65" d="M131.45,208.64c-5.42,2-12.23-2.74-17.42-13.66a117.72,117.72,0,0,1-4.89-12.88,131.12,131.12,0,0,0-7.2-18.14,75.15,75.15,0,0,0-47.09-37.88,53.73,53.73,0,0,0-13.67-1.72c-9.12,0-17.63,2.1-25.14,4-6,1.47-11.65,2.87-16.31,2.87a14.26,14.26,0,0,1-10.27-3.85,35.51,35.51,0,0,1-12-26.72v-.25c0-8.36,5.84-15.7,16.17-27.94,9.9-11.73,19-24.35,24.75-38.67C24.24,19.16,21.27.37,33.75-10.76,41-17.22,58.52-22.55,67.68-16.52c8,5.28,7.16,16.32,7.55,25.12.47,10.58,1,22.56,6,33,4.84,10.1,12.66,16.87,19.57,22.83,4.72,4.08,9.18,7.94,11.61,12,5.1,8.56,6.06,18.91,7.17,30.88,1.35,14.54,2.88,31,12.74,46.71.23.39.5.81.78,1.24,6.71,10.4,8.7,26.47,6.82,38.49C138.6,202.32,135.39,207.23,131.45,208.64Z"/><path class="cls-66" d="M129,204.07c-2.54,0-6.74-3.47-10.44-11.24a116.9,116.9,0,0,1-4.67-12.33,133.94,133.94,0,0,0-7.48-18.82,80.25,80.25,0,0,0-50.27-40.44,59.09,59.09,0,0,0-14.94-1.88c-9.73,0-18.55,2.18-26.33,4.09-5.69,1.4-11.06,2.73-15.12,2.73a9.33,9.33,0,0,1-7-2.61,30.48,30.48,0,0,1-10.29-22.92v-.25c0-6.66,5.42-13.4,15-24.75C10,60.83,17.84,48.48,23,35.61c2.33-5.81,3.36-12,4.35-18C29,8,30.45-1.12,37.08-7c3.92-3.5,12.59-7.13,20.3-7.13a13.91,13.91,0,0,1,7.55,1.81c4.5,3,5,8.9,5.19,17.62,0,1.21.06,2.4.12,3.55.49,11.06,1,23.59,6.49,35,5.29,11,13.53,18.17,20.81,24.46C102,72,106.11,75.63,108.12,79c4.52,7.59,5.44,17.41,6.49,28.79,1.4,15.09,3,32.2,13.48,48.9l.82,1.29c5.47,8.49,8,22.88,6.08,35-1.1,7.08-3.5,10.32-5.22,10.93A2.16,2.16,0,0,1,129,204.07Z"/><path class="cls-67" d="M58.67,111.57a69.11,69.11,0,0,0-17.49-2.21,85,85,0,0,0-18.28,1.81c-5.11,1.16-10,3.9-15.28,4.45-4.91.52-10.33-1-13.17-5.05-2.42-3.44-2.54-8.13-1.16-12.11C-4.55,92.2.9,87.07,5.1,82.1,18.32,66.43,26.71,53.24,32.3,39.34c2.74-6.83,3.91-13.9,4.94-20.14C38.58,11.05,39.74,4,43.72.45,47.26-2.72,54.45-6.41,58.5-2.26c4.25,4.35,2.26,12.41,2.23,17.77A73.33,73.33,0,0,0,64,37.33a75.23,75.23,0,0,0,14.78,27c6,6.93,16.13,12,20.78,19.8,3.37,5.65,4.18,14.43,5.13,24.59C106.09,124.13,82.77,117.91,58.67,111.57Z"/><path class="cls-68" d="M94.72,110.14m-2.39-3a4.22,4.22,0,0,1-.66.36c-1.89.84-4.07.39-6.09-.07-8-1.84-16.06-3.32-24-5.37l-.4-.11a76.73,76.73,0,0,0-47,2.27,17.08,17.08,0,0,1-5.67,1.57c-2,.05-4.12-.86-4.89-2.67-1-2.44.75-5.09,2.44-7.14C13.58,86.85,21.72,78,28.65,68.52c4.91-6.74,10.89-17.32,12.93-25.45,2.6-6.48,1.56-13.16,2.25-19.91A27.2,27.2,0,0,1,47.46,12c.5-.83,2.36-4.26,3.47-4.27,3.29,0,2.71,10.85,2.61,12.88-.35,6.57-1.09,13.23.86,19.64A85.69,85.69,0,0,0,71.16,70.84,73.55,73.55,0,0,0,81.61,80.3c6.5,5.15,12.32,11.65,13.33,20.31C95.22,103.05,94.34,105.78,92.33,107.09Z"/><path class="cls-69" d="M129.14,174.93c-1.28-3-3.37-5.54-4.94-8.38-3.13-5.7-4-12.34-6.13-18.49-1.36-3.95-3.93-5.24-6.83-7.76a4.6,4.6,0,0,0-1.58-1.05,1.44,1.44,0,0,0-1.69.53,2.1,2.1,0,0,0,.2,1.75,70,70,0,0,1,2.69,7c4,13,4.23,27.53,11.34,39.19,1.17,1.9,3.38,3.93,5.33,2.83a4.15,4.15,0,0,0,1.55-2A17.3,17.3,0,0,0,129.14,174.93Z"/><path class="cls-70" d="M364.86,2.5c-1.14-7.37-6.46-13.36-11.95-18.41C346.28-22,338.76-27.56,330-29.66c-4.88-1.18-13.75-1.11-13.73,6a13.44,13.44,0,0,0,1.25,4.81c3,7.41,9.79,15.91,5.09,23.92-2,3.4-5,6-7.44,9.16a29.51,29.51,0,0,0-5.77,21.67c1.41,10.32,11.26,29.74,23,18.42,7.62-7.37,3.52-21.1,13.72-27.54,2.23-1.41,4.83-2.09,7.23-3.21C361.08,19.92,366.18,11,364.86,2.5Z"/><path class="cls-71" d="M326.18,53.75c-3.6,0-9.61-8.67-10.82-17.54a24.58,24.58,0,0,1,4.78-17.94c.8-1,1.72-2.06,2.69-3.14a40.17,40.17,0,0,0,5.09-6.54c6.13-10.44-1.61-18.66-5.08-28a4.44,4.44,0,0,1,.5-4.35c1.49-1.75,4.61-.54,6.49-.08,8.51,2.05,15.89,8.16,20.7,12.57,4.34,4,9.44,9.35,10.39,15.5S358,17.3,352.19,20c-.74.35-1.56.67-2.43,1a29.94,29.94,0,0,0-5.35,2.51c-7.34,4.64-9,12.06-10.38,18-.95,4.22-1.77,7.85-4.15,10.15C328.93,52.65,327.51,53.75,326.18,53.75Z"/><path class="cls-72" d="M324.66,41.45a1.84,1.84,0,0,1-1.76-1c-1.17-2.28-.71-6.73-.55-9.22a16.21,16.21,0,0,1,3.13-9.06c.61-.79,1.38-1.65,2.28-2.65a47.45,47.45,0,0,0,6.06-7.86c6-10.16-5.49-22.26-.36-26a3.66,3.66,0,0,1,4.89.22,13,13,0,0,1,2.09,2.73A49.92,49.92,0,0,0,347-3.31c2.14,2.13,4.51,4.69,5,7.8.41,2.6-1.61,6.08-4.22,7.3-.48.23-1.16.49-1.89.77a37,37,0,0,0-6.77,3.22,27.69,27.69,0,0,0-9.48,10.08c-2.12,3.84-4.32,8.08-3.87,12.59.1,1,.19,2.37-.73,2.87A1.2,1.2,0,0,1,324.66,41.45Z"/><path class="cls-73" d="M826.16,53.47c-4.7-16-10.39-31.85-18.38-46.52-5.63-10.36-12.65-20.36-22.58-26.71-9.07-5.81-19.87-8.15-30.41-10.37-32.09-6.78-21.3,42.18-28.68,58.51A54.06,54.06,0,0,1,694.4,57.05c-5.09,1.71-10.63,2.74-14.78,6.15s-6,10.39-2.13,14.07c1.55,1.46,3.66,2.1,5.57,3,10.55,5.19,13.8,18.6,14.4,30.35s0,24.5,6.9,34.05c4.32,6,11.17,10,14.8,16.46,6.3,11.2.91,25.5,4.14,37.93,2.85,10.94,14.14,19.85,25.21,17.58,14.46-3,20-20.79,20.1-35.55S766.77,150,776,138.4c10.71-13.45,31.69-13.82,44.15-25.66,7.58-7.22,11-18,11.31-28.44S829.11,63.51,826.16,53.47Z"/><path class="cls-74" d="M745,212c-7.26,0-14.82-6.37-16.85-14.19-1.19-4.59-1-9.68-.85-15.06.26-8.07.54-16.41-3.77-24.07-2.39-4.25-5.74-7.39-9-10.43a47.85,47.85,0,0,1-6.12-6.5c-5-7-5.4-16.46-5.76-26.45-.06-1.66-.12-3.31-.21-4.94-.89-17.52-6.83-29.48-17.19-34.58-.57-.28-1.16-.54-1.74-.79a10.63,10.63,0,0,1-2.6-1.4,2.07,2.07,0,0,1-.57-1.77,7,7,0,0,1,2.45-4.79c2.44-2,5.9-3,9.57-4.15,1.21-.36,2.43-.72,3.62-1.12a59.34,59.34,0,0,0,34.67-31.36c2.62-5.79,3.22-14.24,3.85-23.2,1.4-19.94,3.18-33,14.62-33a22.06,22.06,0,0,1,4.62.53c10,2.11,20.33,4.29,28.76,9.69,7.68,4.92,14.32,12.83,20.88,24.89,6.84,12.56,12.55,27,18,45.53,2.59,8.83,5.33,19.1,5.06,29.3s-3.83,19.3-9.76,24.94c-5.08,4.84-12,7.59-19.38,10.51-9.17,3.65-18.66,7.42-25.23,15.66-8.87,11.13-8.67,25.87-8.49,38.86,0,2.41.06,4.68,0,6.94-.12,13.67-5.14,28.46-16.1,30.7A12.46,12.46,0,0,1,745,212Z"/><path class="cls-75" d="M738.74,195.35a6.47,6.47,0,0,1-2.51-3.54c-.79-2.7,0-5.78,0-8.52.3-9.19.67-20.61-5.69-31.93-6-10.56-16.07-14.28-18-27.46-1.21-8.1-.67-16.61-3.81-24.17-2.84-6.82-8.59-12.63-9.09-20-.66-9.48,7.56-17.08,15.61-22.13C723.93,52.16,732,47.44,737,38.17c5.79-10.69,7.12-23,5.83-34.93-.38-3.46-1-7.12.43-10.29,4.22-9.47,16.71-3,22.5.81,6.86,4.5,12.2,14.15,16.53,20.94a159.7,159.7,0,0,1,21.52,52.72c1.79,8.52,2.77,17.85-1.32,25.53-5.11,9.59-16.38,13.73-26.52,17.63-12.73,4.9-20.11,11.43-26.68,23.16-6.81,12.16-6.89,27.07-6.7,40.6C742.65,180.63,742,189.9,738.74,195.35Z"/><path class="cls-76" d="M736.2,145.31c-3.06.7-5.83-4.46-7.92-7a20.67,20.67,0,0,1-4.84-9.86c-.34-2.26-.53-4.66-.73-7.21-.47-6-1-12.73-3.74-19.33a64.07,64.07,0,0,0-4.52-8.46c-1.89-3.13-3.67-6.09-3.83-8.37-.25-3.67,3.84-8.52,11-13l1.2-.75c8.83-5.52,18-11.23,24-22.39,6.25-11.54,5.72-25.43,6.34-38.16.08-1.71.28-3.65,1.65-4.66a3.88,3.88,0,0,1,3.85-.21,10.49,10.49,0,0,1,3.15,2.48C778.86,26,790,51.68,795,75.48c1.26,6,2.37,13.63-.37,18.77-3.22,6-12,9.43-20.51,12.7l-.77.3c-8.06,3.1-15.59,7.45-21.65,13.66a56.29,56.29,0,0,0-9,12.78c-1.72,3.19-2.1,7.56-4.62,10.34A3.85,3.85,0,0,1,736.2,145.31Z"/><path class="cls-77" d="M736.85,134.62c-1,.3-2-.75-2.5-4.38-.3-2-.48-4.25-.66-6.65-.78-9.92-2.18-20.24-8-28.58-1.41-2-2.81-4.25-2.84-6.73-.05-4.09,4.29-5.38,7.17-7.18,9.25-5.79,19.74-12.35,26.78-25.35a48,48,0,0,0,5.57-24.4c-.07-1.87-.06-4.14,1.53-5.13,1.36-.85,3.24-.2,4.28,1,3.74,4.32,6.49,11.24,9.13,16.35a171,171,0,0,1,11.21,27.2c1.89,6,3.45,12.43,1.82,18.51-2.57,9.6-10.14,11.39-18.33,13.87s-17,9-23,15.16a51,51,0,0,0-6.5,8.48C741.18,128.9,738.79,134.08,736.85,134.62Z"/><path class="cls-78" d="M739.35,109.69a2.58,2.58,0,0,1-1-.37c-2.7-1.66-2.48-7.64-3.37-10.3-1.26-3.78-4-7-5.11-10.84s2.82-4.29,5.49-6.11c2-1.39,4-2.8,6-4.28C751.75,70,761.38,60,764.31,47a4.2,4.2,0,0,1,1.16-2.47c1.7-1.34,2.86,1.49,3.46,2.55,1.56,2.75,2.43,5.8,3.65,8.69q3,7.1,5.31,14.45c1.75,5.57,4.14,11.76-.2,16.85-3.32,3.89-8.77,5-13.59,6.69a45,45,0,0,0-16.31,10.17C746.1,105.54,742.32,110.09,739.35,109.69Z"/><path class="cls-79" d="M737.79,93.57l-.4.27a1.45,1.45,0,0,1-1.31.33c-.48-.21-.57-.84-.58-1.37a9,9,0,0,1,.77-4.43c1.21-2.28,3.4-1.62,5.18-3,4.13-3.1,7-7.55,10.07-11.66,1.87-2.54,6-9.11,10.09-7.13a2.78,2.78,0,0,1,1.53,2.22c.17,2.13-1.09,3.75-.24,6a14.57,14.57,0,0,1,1.26,3.3,3.5,3.5,0,0,1-1.14,3c-1.16,1-3.6,1.28-5.1,1.77-1,.34-2.08.67-3.09,1C748.57,86.14,743.28,89.93,737.79,93.57Z"/><path class="cls-80" d="M779.56,243.46c-5.48-10.38-16.38-19.51-27.62-19.12-8.19.29-16.11,4.48-24.24,3.43-11.62-1.5-19.05-12.69-28.49-19.63C683.83,196.82,663,197,644,199.18c-3.7.42-8,1.3-9.61,4.66-1.31,2.7-.28,5.92,1,8.62a44.72,44.72,0,0,0,23.19,21.73c8.87,3.6,18.74,4.27,27.46,8.22,17.62,8,27.26,28.81,25.36,48.06S697.8,327,682.73,339.1c-8.9,7.15-20.05,14.62-20.35,26-.16,6.06,3.08,11.83,7.55,15.92S680,387.75,685.65,390c4.83,1.88,10.21,3.87,12.66,8.45,2.32,4.32,1.3,9.75,3.15,14.29,2.17,5.34,7.75,8.35,13,10.65s11.14,4.36,16.59,2.59c3.59-1.16,6.46-3.83,9.1-6.53,11.19-11.45,20.65-25.35,23.33-41.13,1.57-9.19.77-18.6.67-27.93a184.88,184.88,0,0,1,10.33-62.76c3.8-10.86,10.18-22.18,8.49-34A31.52,31.52,0,0,0,779.56,243.46Z"/><path class="cls-81" d="M726.56,416a11.85,11.85,0,0,1-6.27-.24,15.64,15.64,0,0,1-9.88-9.56c-.93-2.65-1.12-5.5-1.67-8.26-1.86-9.29-11-14-19.06-17.1l-.4-.16c-4.3-1.67-9.15-3.81-12.6-7-2.73-2.49-4.38-5.66-4.31-8.27.15-5.53,7-10.94,13.7-16.18L689,346.9c18.61-15,30.43-35.17,32.43-55.46,2.44-24.82-10.39-48.73-31.2-58.14A87.17,87.17,0,0,0,674,228.25a79.2,79.2,0,0,1-11.55-3.33,30.13,30.13,0,0,1-9.39-6.63c-3.37-3.25-11.62-9.39-3.93-11.94,2.5-.83,5.86.12,8.28.83,12.38,3.63,24.6.68,35.93,9a85.65,85.65,0,0,1,7.48,6.52c6.76,6.34,14.44,13.53,25.65,15a32.3,32.3,0,0,0,4,.25,56.62,56.62,0,0,0,13.48-2.08,44.32,44.32,0,0,1,8.42-1.52h.35c6.15,0,13.92,5.93,18.08,13.8a21.76,21.76,0,0,1,2.37,6.86c1,7.19-2.13,14.78-5,21.17a127.92,127.92,0,0,0-8.17,24.4c-3.83,16.63-4.88,33.75-5.46,50.76C754,364,753.76,377,749.67,389,746.83,397.43,737.37,413.51,726.56,416Z"/><path class="cls-82" d="M723.84,410.89a8.82,8.82,0,0,1-3.16-.6c-2.93-1.17-5-4-6-6.92-1.64-4.66-1-9.06-3.74-13.38a29.51,29.51,0,0,0-9.41-9.06c-6-3.74-13.66-4.84-19.29-8.82-2.53-1.8-4.42-4.84-3.93-7.9s2.88-5.1,5.33-6.74c22-14.7,40.15-38.63,42.79-65.54S715,239,692.28,228.74a91.73,91.73,0,0,0-17.16-5.35,77.06,77.06,0,0,1-10.83-3.1c-1.92-.77-8.48-3.5-8.42-6.18.1-4.83,12.09,0,14.49.26,7.45.74,13.88,1.38,20,5.85a83.13,83.13,0,0,1,7,6.14c7,6.52,15.62,14.64,28.43,16.29a36.81,36.81,0,0,0,4.61.29A61.15,61.15,0,0,0,745,240.72a41.92,41.92,0,0,1,7.42-1.39h.18c3.76,0,10.14,4.48,13.66,11.14a16.75,16.75,0,0,1,1.84,5.22c.83,5.77-2,12.52-4.64,18.4a133.82,133.82,0,0,0-8.5,25.35c-3.94,17.12-5,35-5.57,51.71l-.07,1.92c-.38,11.61-.78,23.62-4.42,34.37-2.39,7-7.43,15.89-13.35,20.58A12.69,12.69,0,0,1,723.84,410.89Z"/><path class="cls-83" d="M724.88,398.9c-2.35-.62-2.33-6.34-3.5-9.07a38.63,38.63,0,0,0-6.24-10,33.35,33.35,0,0,0-20.24-11.33c-1.57-.23-3.38-.49-4.22-1.84-1-1.57,0-3.58,1-5.13,6-9.36,13.62-17.49,20.93-25.83s14.41-17.09,18.94-27.22,6.28-21.91,2.66-32.4c-1.42-4.12-3.63-7.95-4.95-12.11-4.07-12.8,6.63-11.75,15.95-13.41,3.44-.61,7.36-1.12,10.11,1.05,2.18,1.72,3,4.76,2.7,7.53a27.49,27.49,0,0,1-2.5,7.94,201.75,201.75,0,0,0-15.86,73c-.29,10.78.27,21.64-1.38,32.31a63.44,63.44,0,0,1-4.4,16.13c-1.35,3-3.49,7.35-6.2,9.39C726.46,398.82,725.57,399.08,724.88,398.9Z"/><path class="cls-84" d="M725.69,381.53a1.53,1.53,0,0,1-.47-.11c-1.17-.48-1.64-3-2.17-4a31.85,31.85,0,0,0-4.21-6.25,27.63,27.63,0,0,0-9-6.42c-2.16-1.06-8.58-2.34-8.89-5.24s4-5.53,5.52-7.43c2.36-2.93,4.82-5.79,7.31-8.6q1.49-1.67,3-3.35a120.78,120.78,0,0,0,11.86-15.88c1.66-2.67,4-5.77,4.9-8.79.42-1.38-.1-6.29,2.2-6.29,1.58,0-3.18,23-3.43,24.92-.9,6.72-.27,13.93-.67,20.73s-1,13.8-1.81,20.67a10.21,10.21,0,0,1-1.09,4.12C728.16,380.43,726.86,381.61,725.69,381.53Z"/><path class="cls-85" d="M723.66,368.12c-1,.48-1.76-1-2-1.85-1.42-4.56-5.43-5.69-9.27-7.57a2.87,2.87,0,0,1-1.42-1.41c-.57-1.41.71-2.71,1.53-3.68,1.18-1.4,2.29-2.86,3.44-4.29l3.46-4.33c.65-.81,1.38-1.55,2-2.36s1-1.65,1.57-2.37a1.74,1.74,0,0,1,1.24-.69,1.79,1.79,0,0,1,1.62,1.66,9.38,9.38,0,0,1-.43,2.52c-.13.95-.09,2-.13,3-.09,2.11-.09,4.21-.18,6.31q-.26,6.24-.36,12.47a3.36,3.36,0,0,1-.59,2.25A1.59,1.59,0,0,1,723.66,368.12Z"/><path class="cls-86" d="M501,522.75c-2.26-7.09-10.77-12.25-9.54-19.58.5-2.92,2.52-5.31,3.83-8a17.19,17.19,0,0,0-14.69-24.78c-10-.43-18.3,7.59-28.07,9.62-21.17,4.41-40.79-19.81-61.8-14.71-14.09,3.43-21.59,18.29-31.86,28.53-12.41,12.36-41.36,11.78-47.74,30-1.62,4.66-1.12,10.72,3.06,13.34,2.41,1.51,5.46,1.51,8.3,1.31,25.39-1.82,50.4-15.59,75.14-9.54,8.71,2.12,16.64,6.6,24.95,10A108.78,108.78,0,0,0,476,546c6.49-.76,13.16-2.19,18.39-6.11S503,529,501,522.75Z"/><path class="cls-87" d="M463,541.76a103.26,103.26,0,0,1-38.49-7.38c-2.57-1-5.19-2.24-7.73-3.39-5.67-2.59-11.54-5.26-17.92-6.82a60,60,0,0,0-14.41-1.67c-11.62,0-23.2,2.92-34.41,5.73-9.18,2.31-18.67,4.69-27.86,5.35-.78,0-1.41.08-2,.08a6.42,6.42,0,0,1-3.32-.64c-1.82-1.14-1.93-4.75-1-7.45,3-8.51,13-12.19,23.7-16.09,8.33-3.05,16.95-6.2,22.84-12.07a133.35,133.35,0,0,0,8.84-10.1c6.33-7.76,12.32-15.08,20.68-17.11a20.36,20.36,0,0,1,4.84-.57c7.36,0,14.94,3.63,23,7.47,8.73,4.18,17.76,8.49,27.48,8.49h0a30.89,30.89,0,0,0,6.33-.64c4.73-1,8.92-3.06,13-5.07,4.63-2.3,9-4.47,13.31-4.47h.56A12.19,12.19,0,0,1,490.8,493c-.33.67-.76,1.38-1.21,2.14a20.42,20.42,0,0,0-3.06,7.2c-1.09,6.5,2.7,11.5,5.75,15.52,1.7,2.24,3.3,4.36,4,6.4,1.34,4.22-1.44,9-4.89,11.63-4.58,3.44-10.94,4.56-16,5.15a107.54,107.54,0,0,1-12.43.72Z"/><path class="cls-88" d="M462.93,532c-9.3-1-18.66-1-27.54-5-10.18-4.62-20.57-8.9-31.48-11.43-14-3.25-29.09-3.44-42.32,2.14-2.38,1-4.72,2.19-7.27,2.56-9.09,1.29-5.64-5.87-.52-8.45s11.47-3.12,15.66-7.3A139.72,139.72,0,0,0,379,493.65c3.09-3.78,6.56-9.79,10.94-12,5.69-2.88,13.94-.89,19.48,1.3,7.24,2.87,13.78,7.34,21.1,10a46.78,46.78,0,0,0,41.28-5,12.92,12.92,0,0,1,4.43-2.29c1.64-.33,3.62.29,4.25,1.84a5.37,5.37,0,0,1-.15,3.33c-1.74,6.72-5.55,14.47-2.83,21.16,2.2,5.38,9,11.64,5.48,17.85-2.49,4.49-7.54,4.43-11.91,3.43A72.81,72.81,0,0,0,462.93,532Z"/><path class="cls-89" d="M472.26,524.61a4.6,4.6,0,0,1-2.8,2.37c-3.85,1.28-9.51-2.1-13.17-3.06l-22-5.78-43-11.29c-2.92-.76-6.21-1.84-7.4-4.61-1.31-3.06.74-6.59,3.36-8.64,8.05-6.26,19.78-3.59,29.05.68s18.68,10,28.83,9c5.52-.56,11.1-3.12,16.42-1.52,4.47,1.35,7.67,5.47,9.14,9.9C471.88,515,474,521.08,472.26,524.61Z"/><path class="cls-90" d="M-104.19,144.51c17,13.64,34.86,27.73,56.25,31.68,26.6,4.91,55.74-6.47,80.3,4.88,3.72,1.71,7.3,4,9.66,7.36,7.22,10.27.54,26.08,8,36.15,5.26,7.07,15.31,8.25,24.1,7.76s18.1-2,26,1.87c11,5.29,15.21,18.51,23.15,27.76,9.25,10.77,23.28,15.83,36,22.15s25.64,15.74,28.42,29.66c1.35,6.73.1,13.72.73,20.56,1.37,15,11.61,27.84,23.08,37.66s24.6,17.73,35.09,28.6,18.25,25.95,15.33,40.77c-2.24,11.35-10.25,20.58-18,29.13-16.67,18.3-34.76,36.91-58.3,44.56-16.11,5.24-33.56,4.88-49.92,9.3s-32.94,16-34.65,32.88"/><path class="cls-91" d="M45.33-87.87A94.54,94.54,0,0,0,72.78-51.66C83.34-43.15,95.63-37,106.27-28.59s19.92,20,20.8,33.56c.33,5.11-.55,10.26.1,15.34,2.49,19.61,25.4,29.83,33.49,47.88,8.35,18.65-.94,41,5,60.61,4.4,14.62,17.13,27.7,14.32,42.71-2.07,11.07-11.67,18.66-15.55,29-2.62,7-2.5,26.43,10.45,17.82,2.59-1.73,4.35-4.43,5.83-7.16,3.9-7.21,6.41-14.37,15.31-16.5,5.95-1.42,12.17-.46,18.25.18,16.29,1.73,34.39-3.85,44.68-17.2,8.84-11.46,11.51-27.65,23.05-36.39,8-6,18.58-7.18,27.42-11.82,28.05-14.74,27.48-49.32,33-76C347.52,28.54,381.8,23.06,395.22,4c5.92-8.41,6.9-19.66,4.13-29.57s-8.94-18.59-16.19-25.89"/><path class="cls-92" d="M800.65-92c-20.6-5.19-42.15,7.6-54.69,24.75S727.54-29.13,719.91-9.3s-18.12,39.93-36.27,51c-4.93,3-10.33,5.26-14.88,8.81-4,3.09-7.22,7.11-11.41,9.91-11.07,7.38-26.24,4.62-37.86-1.85S598.35,42.39,587.1,35.3a86,86,0,0,0-47.84-13.1c-8.7.24-17.67,1.95-24.75,7s-11.83,14-10,22.53C507.35,64.67,523.91,74.33,520,87c-2.64,8.48-13.05,11.5-18.93,18.16-10.84,12.27-3,32,8.3,43.84s26.2,21.68,31.1,37.3c6,19.24-5.43,39.16-16.4,56.07-4.2,6.46-8.76,13.25-15.76,16.46-9.32,4.28-20.44,1-29.22-4.31s-16.35-12.53-25.55-17c-6.86-3.37-17.15-4-20.24,3-2,4.63.66,10.25,4.79,13.17s9.33,3.8,14.33,4.6c26.75,4.31,55.73,10,73.5,30.49,15.78,18.16,35.89,6.88,51.94-7.11,15-13.07,22.65-41.25,46.38-41.1,11.69.07,23.36,8.16,34.87,10.93,9.4,2.26,19,4.4,27.38,9.26s15.46,13,16.43,22.61c1.58,15.55-15.22,42.1-25.22,53.38-10.33,11.64-25,19.21-23.53,37.13.47,5.79,4.13,8.71,6.68,13.71,2.89,5.67,4.14,12.05,6.87,17.8,12,25.24,38.84,40.42,31.46,72.24-6.38,27.52-33.73,41.38-50.52,61.79"/><path class="cls-93" d="M251.88,533.89c2.84-19.18,13.11-40.1,32.06-44.16,14.6-3.12,29.61,4.88,44.42,3,15.91-2,28-14.6,40.21-25s28.85-19.59,43.63-13.36c8.61,3.63,15.22,12.1,24.52,13,5.24.53,10.37-1.51,15.16-3.69,7.32-3.34,14.56-7.16,22.46-8.65s16.84-.25,22.57,5.4c9.73,9.59,5.93,25.66,7.69,39.22A45,45,0,0,0,524,530.93"/></g></svg>